<svg width="24" height="29" viewBox="0 0 24 29" fill="none" xmlns="http://www.w3.org/2000/svg">
<rect x="2.7449" y="4.2229" width="0.703812" height="0.703812" fill="black"/>
<rect x="0.703796" y="6.33435" width="0.703812" height="0.703812" fill="black"/>
<rect x="0.703796" y="9.14954" width="0.703812" height="1.40762" fill="black"/>
<rect x="2.11142" y="9.85327" width="0.703812" height="1.40762" fill="black"/>
<rect x="3.51907" y="13.3724" width="0.703812" height="1.40762" fill="black"/>
<rect x="2.81525" y="14.78" width="0.703812" height="1.40762" fill="black"/>
<rect x="1.40762" y="17.5952" width="0.703812" height="0.844575" fill="black"/>
<rect x="2.11142" y="18.4399" width="0.703812" height="1.40762" fill="black"/>
<rect x="4.9267" y="13.3724" width="0.703812" height="1.40762" fill="black"/>
<rect x="1.40762" y="7.03809" width="0.703812" height="0.703812" fill="black"/>
<rect x="8.44574" y="8.44568" width="0.703812" height="0.703812" fill="black"/>
<rect x="3.44867" y="6.33435" width="0.703812" height="0.703812" fill="black"/>
<rect x="4.85629" y="7.74194" width="0.703812" height="0.703812" fill="black"/>
<rect x="7.03809" y="14.0763" width="0.703812" height="0.703812" fill="black"/>
<rect x="9.07922" y="16.8915" width="0.703812" height="0.703812" fill="black"/>
<rect x="2.18182" y="21.9589" width="0.703812" height="0.703812" fill="black"/>
<rect x="0.703796" y="20.5513" width="0.703812" height="0.703812" fill="black"/>
<rect x="1.40762" y="19.8475" width="0.703812" height="0.703812" fill="black"/>
<rect x="5.70087" y="21.9589" width="2.11144" height="0.703812" fill="black"/>
<rect x="2.88562" y="22.6627" width="2.81525" height="0.703812" fill="black"/>
<rect x="1.40762" y="21.2551" width="2.11144" height="0.703812" fill="black"/>
<rect x="12.0352" y="22.522" width="0.703812" height="0.703812" fill="black"/>
<rect x="9.78302" y="21.8181" width="0.703812" height="0.844575" fill="black"/>
<rect x="12.739" y="23.2258" width="0.703812" height="0.703812" fill="black"/>
<rect x="9.78302" y="17.5952" width="0.703812" height="2.81525" fill="black"/>
<rect x="10.4868" y="19.1437" width="0.844575" height="2.81525" fill="black"/>
<rect x="11.3314" y="21.1144" width="0.703812" height="1.40762" fill="black"/>
<rect x="5.63049" y="15.4839" width="0.703812" height="0.703812" fill="black"/>
<rect x="4.22287" y="17.5952" width="2.11144" height="0.703812" fill="black"/>
<rect x="7.03809" y="17.5952" width="2.11144" height="0.703812" fill="black"/>
<rect x="3.51907" y="16.1876" width="2.11144" height="0.703812" fill="black"/>
<rect x="2.11142" y="16.8915" width="2.11144" height="0.703812" fill="black"/>
<rect x="6.33429" y="12.6686" width="0.703812" height="0.703812" fill="black"/>
<rect x="7.03809" y="10.5573" width="0.703812" height="1.40762" fill="black"/>
<rect x="9.07922" y="9.85327" width="0.703812" height="0.703812" fill="black"/>
<rect x="9.07922" y="10.5573" width="2.2522" height="0.703812" fill="black"/>
<rect x="9.07922" y="9.14954" width="0.703812" height="0.703812" fill="black"/>
<rect x="9.07922" y="11.261" width="0.703812" height="0.703812" fill="black"/>
<rect x="8.37537" y="11.9648" width="0.703812" height="1.40762" fill="black"/>
<rect x="7.67157" y="13.3724" width="0.703812" height="2.11144" fill="black"/>
<rect x="8.37537" y="15.4839" width="0.703812" height="1.40762" fill="black"/>
<rect x="7.81232" y="18.2991" width="0.703812" height="1.40762" fill="black"/>
<rect x="8.51614" y="19.0732" width="0.703812" height="1.40762" fill="black"/>
<rect x="9.07922" y="20.4808" width="0.703812" height="1.40762" fill="black"/>
<rect x="8.51614" y="20.4808" width="0.56305" height="1.40762" fill="black"/>
<rect x="7.81232" y="21.2551" width="0.703812" height="1.40762" fill="black"/>
<rect x="9.78302" y="20.4105" width="0.703812" height="1.40762" fill="black"/>
<rect x="6.33429" y="14.78" width="0.703812" height="2.81525" fill="black"/>
<rect x="1.40762" y="10.5573" width="0.703812" height="0.703812" fill="black"/>
<rect x="2.81525" y="11.261" width="1.40762" height="0.703812" fill="black"/>
<rect x="4.22287" y="10.5573" width="1.40762" height="0.703812" fill="black"/>
<rect x="5.63049" y="11.261" width="1.40762" height="0.703812" fill="black"/>
<rect x="5.63049" y="11.9648" width="1.40762" height="0.703812" fill="black"/>
<rect x="4.22287" y="12.6686" width="1.40762" height="0.703812" fill="black"/>
<rect y="7.03809" width="0.703812" height="2.11144" fill="black"/>
<rect x="3.44867" y="4.92676" width="2.11144" height="0.703812" fill="black"/>
<rect x="5.56012" y="4.2229" width="1.47801" height="0.703812" fill="black"/>
<rect x="6.26392" y="4.92676" width="0.774194" height="0.703812" fill="black"/>
<rect x="6.26392" y="5.63049" width="0.774194" height="1.40762" fill="black"/>
<rect x="5.56012" y="7.03809" width="0.703812" height="1.40762" fill="black"/>
<rect x="6.26392" y="7.74194" width="2.18182" height="0.703812" fill="black"/>
<rect x="1.40762" y="5.63049" width="3.51906" height="0.703812" fill="black"/>
<rect x="3.44867" y="3.51917" width="1.40762" height="0.703812" fill="black"/>
<rect x="4.85629" y="2.81519" width="0.703812" height="0.703812" fill="black"/>
<rect x="5.56012" y="2.11145" width="1.47801" height="0.703812" fill="black"/>
<rect x="7.03809" y="2.81519" width="2.11144" height="0.703812" fill="black"/>
<rect x="7.74191" y="3.51917" width="0.703812" height="0.703812" fill="black"/>
<rect x="8.44574" y="4.2229" width="0.703812" height="0.703812" fill="black"/>
<rect x="9.14954" y="2.11145" width="1.40762" height="0.703812" fill="black"/>
<rect x="14.1466" y="2.11145" width="1.40762" height="0.703812" fill="black"/>
<rect x="7.03809" y="2.11145" width="0.703812" height="0.703812" fill="black"/>
<rect x="7.74191" y="1.40759" width="0.703812" height="0.703812" fill="black"/>
<rect x="8.44574" y="0.703857" width="0.703812" height="0.703812" fill="black"/>
<rect x="9.14954" width="0.703812" height="0.703812" fill="black"/>
<rect x="9.85339" y="0.703857" width="0.703812" height="0.703812" fill="black"/>
<rect x="10.5572" y="1.40759" width="0.703812" height="0.703812" fill="black"/>
<rect x="11.261" y="0.703857" width="0.703812" height="0.703812" fill="black"/>
<rect x="12.0352" y="3.51917" width="0.703812" height="0.703812" fill="black"/>
<rect x="11.3314" y="4.2229" width="0.703812" height="0.703812" fill="black"/>
<rect x="12.739" y="9.14954" width="0.703812" height="0.703812" fill="black"/>
<rect x="15.5543" y="9.85327" width="0.703812" height="0.703812" fill="black"/>
<rect x="16.2581" y="10.5573" width="0.703812" height="0.703812" fill="black"/>
<rect x="20.481" y="15.4839" width="0.703812" height="0.703812" fill="black"/>
<rect x="21.1848" y="16.1876" width="0.703812" height="0.703812" fill="black"/>
<rect x="19.7772" y="16.8915" width="1.40762" height="0.703812" fill="black"/>
<rect x="15.5543" y="17.5952" width="5.6305" height="0.703812" fill="black"/>
<rect x="19.0733" y="18.2991" width="2.11144" height="0.703812" fill="black"/>
<rect x="21.1848" y="19.0028" width="0.703812" height="0.703812" fill="black"/>
<rect x="5.70087" y="27.4487" width="0.703812" height="0.703812" fill="black"/>
<rect x="6.40469" y="26.7449" width="0.703812" height="0.703812" fill="black"/>
<rect x="9.21994" y="22.6627" width="0.703812" height="0.703812" fill="black"/>
<rect x="7.10849" y="26.0411" width="1.40762" height="0.703812" fill="black"/>
<rect x="8.51614" y="25.3372" width="1.40762" height="0.703812" fill="black"/>
<rect x="8.51614" y="22.6627" width="0.703812" height="2.67449" fill="black"/>
<rect x="19.7772" y="22.522" width="0.703812" height="0.703812" fill="black"/>
<rect x="19.7772" y="23.2258" width="0.703812" height="0.703812" fill="black"/>
<rect x="14.8505" y="26.7449" width="0.703812" height="1.40762" fill="black"/>
<rect x="20.481" y="23.2258" width="0.703812" height="0.703812" fill="black"/>
<rect x="21.1848" y="23.9296" width="0.703812" height="0.703812" fill="black"/>
<rect x="22.5924" y="26.7478" width="0.703812" height="0.703812" transform="rotate(-180 22.5924 26.7478)" fill="black"/>
<rect x="21.1848" y="24.6334" width="0.703812" height="0.703812" fill="black"/>
<rect x="23.2962" y="26.7449" width="0.703812" height="0.703812" transform="rotate(-180 23.2962 26.7449)" fill="black"/>
<rect x="24" y="27.4487" width="0.703812" height="0.703812" transform="rotate(-180 24 27.4487)" fill="black"/>
<rect x="23.2962" y="28.1525" width="4.92669" height="0.703812" transform="rotate(-180 23.2962 28.1525)" fill="black"/>
<rect x="19.0733" y="25.3372" width="4.22287" height="0.703812" transform="rotate(-180 19.0733 25.3372)" fill="black"/>
<rect x="18.3695" y="27.4487" width="2.11144" height="0.703812" transform="rotate(-180 18.3695 27.4487)" fill="black"/>
<rect x="14.8505" y="28.8563" width="8.44575" height="0.703812" transform="rotate(-180 14.8505 28.8563)" fill="black"/>
<rect x="16.2581" y="26.7449" width="2.11144" height="0.703812" transform="rotate(-180 16.2581 26.7449)" fill="black"/>
<rect x="15.5543" y="26.0411" width="1.40762" height="0.703812" transform="rotate(-180 15.5543 26.0411)" fill="black"/>
<rect x="14.8505" y="24.6334" width="1.40762" height="0.703812" transform="rotate(-180 14.8505 24.6334)" fill="black"/>
<rect x="19.7772" y="25.3372" width="2.11144" height="0.703812" fill="black"/>
<rect x="21.8885" y="24.6334" width="0.703812" height="0.703812" fill="black"/>
<rect x="23.2931" y="26.0411" width="0.703812" height="0.703812" transform="rotate(-180 23.2931 26.0411)" fill="black"/>
<rect x="19.7772" y="23.9296" width="0.703812" height="0.703812" fill="black"/>
<rect x="19.0733" y="23.9296" width="0.703812" height="0.703812" fill="black"/>
<rect x="19.0733" y="24.6334" width="0.703812" height="0.703812" fill="black"/>
<rect x="19.0733" y="19.7067" width="2.11144" height="0.703812" fill="black"/>
<rect x="19.0733" y="19.0028" width="1.40762" height="0.703812" fill="black"/>
<rect x="15.5543" y="18.2991" width="1.40762" height="0.703812" fill="black"/>
<rect x="12.739" y="18.2991" width="2.11144" height="0.703812" fill="black"/>
<rect x="12.739" y="17.5952" width="1.40762" height="0.703812" fill="black"/>
<rect x="12.739" y="19.0028" width="4.22287" height="0.703812" fill="black"/>
<rect x="13.4428" y="19.7067" width="4.22287" height="0.703812" fill="black"/>
<rect x="13.4428" y="20.4105" width="7.74194" height="0.703812" fill="black"/>
<rect x="14.1466" y="21.1144" width="6.33431" height="0.703812" fill="black"/>
<rect x="15.5543" y="21.8181" width="4.22287" height="0.703812" fill="black"/>
<rect x="16.9619" y="22.522" width="2.11144" height="0.703812" fill="black"/>
<rect x="16.2581" y="11.261" width="3.51906" height="0.703812" fill="black"/>
<rect x="11.3314" y="11.9648" width="6.33431" height="0.703812" fill="black"/>
<rect x="13.4428" y="12.6686" width="4.22287" height="0.703812" fill="black"/>
<rect x="13.4428" y="13.3724" width="4.92669" height="0.703812" fill="black"/>
<rect x="16.9619" y="14.0763" width="2.81525" height="0.703812" fill="black"/>
<rect x="16.9619" y="14.78" width="2.81525" height="0.703812" fill="black"/>
<rect x="16.9619" y="15.4839" width="2.81525" height="0.703812" fill="black"/>
<rect x="12.0352" y="16.1876" width="7.74194" height="0.703812" fill="black"/>
<rect x="12.0352" y="16.8915" width="7.74194" height="0.703812" fill="black"/>
<rect x="10.6276" y="12.6686" width="2.11144" height="0.703812" fill="black"/>
<rect x="9.92377" y="13.3724" width="2.11144" height="0.703812" fill="black"/>
<rect x="9.92377" y="14.0763" width="4.92669" height="0.703812" fill="black"/>
<rect x="9.92377" y="14.78" width="4.92669" height="0.703812" fill="black"/>
<rect x="10.6276" y="15.4839" width="4.92669" height="0.703812" fill="black"/>
<rect x="11.3314" y="9.85327" width="2.81525" height="0.703812" fill="black"/>
<rect x="12.0352" y="11.261" width="2.81525" height="0.703812" fill="black"/>
<rect x="13.4428" y="10.5573" width="2.11144" height="0.703812" fill="black"/>
<rect x="15.5543" y="2.81519" width="0.703812" height="0.703812" fill="black"/>
<rect x="14.8505" y="3.51917" width="0.703812" height="0.703812" fill="black"/>
<rect x="14.1466" y="4.2229" width="0.703812" height="0.703812" fill="black"/>
<rect x="16.2581" y="5.63049" width="0.703812" height="0.703812" fill="black"/>
<rect x="16.9619" y="6.33435" width="0.703812" height="1.40762" fill="black"/>
<rect x="16.2581" y="7.74194" width="0.703812" height="1.40762" fill="black"/>
<rect x="15.5543" y="7.03809" width="0.703812" height="1.40762" fill="black"/>
<rect x="16.9619" y="9.14954" width="0.703812" height="1.40762" fill="black"/>
<rect x="19.7772" y="11.9648" width="0.703812" height="3.51906" fill="black"/>
<rect x="11.3314" y="5.63049" width="0.703812" height="1.40762" fill="black"/>
<rect x="12.0352" y="7.03809" width="0.703812" height="2.81525" fill="black"/>
<rect x="14.8505" y="4.92676" width="1.40762" height="0.703812" fill="black"/>
<rect x="14.8505" y="4.92676" width="1.40762" height="0.703812" fill="black"/>
<rect x="9.14954" y="4.92676" width="2.18182" height="0.703812" fill="black"/>
<rect x="11.9648" width="0.703812" height="0.703812" fill="black"/>
<rect x="12.6686" y="0.703857" width="0.703812" height="2.11144" fill="black"/>
<rect x="12.0352" y="3.51917" width="0.703812" height="2.11144" transform="rotate(-90 12.0352 3.51917)" fill="black"/>
<rect x="3.44867" y="4.2229" width="0.703812" height="0.703812" fill="#FF5500"/>
<rect x="4.85629" y="3.51917" width="0.703812" height="0.703812" fill="#FF5500"/>
<rect x="5.56012" y="2.81519" width="1.47801" height="0.703812" fill="#FF5500"/>
<rect x="8.44574" y="1.40759" width="0.703812" height="0.703812" fill="#FF5500"/>
<rect x="9.14954" y="0.703857" width="0.703812" height="0.703812" fill="#FF5500"/>
<rect x="4.1525" y="4.2229" width="1.40762" height="0.703812" fill="#D94E09"/>
<rect x="7.74191" y="2.11145" width="0.703812" height="0.703812" fill="#D94E09"/>
<rect x="5.56012" y="3.51917" width="2.18182" height="0.703812" fill="#D94E09"/>
<rect x="8.44574" y="2.11145" width="0.703812" height="0.703812" fill="#C92C2C"/>
<rect x="9.14954" y="1.40759" width="1.40762" height="0.703812" fill="#C92C2C"/>
<rect x="13.4428" y="3.51917" width="0.703812" height="1.40762" fill="#C92C2C"/>
<rect x="15.5543" y="5.63049" width="0.703812" height="1.40762" fill="#C92C2C"/>
<rect x="12.0352" y="4.92676" width="1.40762" height="0.703812" fill="#C92C2C"/>
<rect x="13.4428" y="5.63049" width="1.40762" height="0.703812" fill="#C92C2C"/>
<rect x="13.4428" y="7.74194" width="1.40762" height="0.703812" fill="#C92C2C"/>
<rect x="14.1466" y="8.44568" width="0.703812" height="0.703812" fill="#C92C2C"/>
<rect x="14.8505" y="6.33435" width="0.703812" height="0.703812" fill="#C92C2C"/>
<rect x="15.5543" y="9.14954" width="0.703812" height="0.703812" fill="#C92C2C"/>
<rect x="14.8505" y="9.85327" width="0.703812" height="0.703812" fill="#C92C2C"/>
<rect x="16.2581" y="9.85327" width="0.703812" height="0.703812" fill="#C92C2C"/>
<rect x="4.1525" y="7.03809" width="0.774194" height="0.703812" fill="#C92C2C"/>
<rect x="7.67154" y="16.1877" width="0.703812" height="0.703812" fill="#363636"/>
<rect x="8.37537" y="18.2289" width="0.703812" height="0.985337" fill="#363636"/>
<rect x="9.07916" y="17.5953" width="0.703812" height="2.11144" fill="#363636"/>
<rect x="7.03809" y="16.8916" width="2.04106" height="0.703812" fill="#363636"/>
<rect x="7.03809" y="14.78" width="0.703812" height="0.703812" fill="#2B2B2B"/>
<rect x="7.03809" y="15.484" width="1.33724" height="0.703812" fill="#2B2B2B"/>
<rect x="4.1525" y="6.33435" width="0.774194" height="0.703812" fill="#7D0202"/>
<rect x="11.3314" y="4.92676" width="0.703812" height="0.703812" fill="#7D0202"/>
<rect x="12.0352" y="4.2229" width="0.703812" height="0.703812" fill="#7D0202"/>
<rect x="12.739" y="3.51917" width="0.703812" height="0.703812" fill="#7D0202"/>
<rect x="12.0352" y="5.63049" width="0.703812" height="0.703812" fill="#7D0202"/>
<rect x="12.0352" y="6.33435" width="0.703812" height="0.703812" fill="#7D0202"/>
<rect x="13.4428" y="8.44568" width="0.703812" height="0.703812" fill="#7D0202"/>
<rect x="14.1466" y="9.85327" width="0.703812" height="0.703812" fill="#7D0202"/>
<rect x="13.4428" y="6.33435" width="1.40762" height="0.703812" fill="#7D0202"/>
<rect x="14.1466" y="9.14954" width="1.40762" height="0.703812" fill="#7D0202"/>
<rect x="12.739" y="5.63049" width="0.703812" height="2.81525" fill="#7D0202"/>
<rect x="14.1466" y="2.81519" width="1.40762" height="0.703812" fill="#FF0000"/>
<rect x="14.1466" y="3.51917" width="0.703812" height="0.703812" fill="#FF0000"/>
<rect x="12.739" y="4.2229" width="0.703812" height="0.703812" fill="#FF0000"/>
<rect x="14.8505" y="5.63049" width="0.703812" height="0.703812" fill="#FF0000"/>
<rect x="16.2581" y="9.14954" width="0.703812" height="0.703812" fill="#FF0000"/>
<rect x="13.4428" y="9.14954" width="0.703812" height="0.703812" fill="#FF0000"/>
<rect x="12.739" y="8.44568" width="0.703812" height="0.703812" fill="#FF0000"/>
<rect x="16.2581" y="6.33435" width="0.703812" height="1.40762" fill="#FF0000"/>
<rect x="14.8505" y="7.03809" width="0.703812" height="1.40762" fill="#FF0000"/>
<rect x="13.4428" y="4.92676" width="1.40762" height="0.703812" fill="#FF0000"/>
<rect x="13.4428" y="7.03809" width="1.40762" height="0.703812" fill="#FF0000"/>
<rect x="14.8505" y="8.44568" width="1.40762" height="0.703812" fill="#FF0000"/>
<rect x="5.56012" y="4.92676" width="0.703812" height="2.11144" fill="#4D0606"/>
<rect x="4.9267" y="5.63049" width="0.703812" height="2.11144" fill="#4D0606"/>
<rect x="0.703796" y="7.03809" width="0.703812" height="1.40762" fill="#C7C7C7"/>
<rect x="3.44867" y="7.03809" width="0.703812" height="0.703812" fill="#C7C7C7"/>
<rect x="4.1525" y="7.74194" width="0.703812" height="0.703812" fill="#C7C7C7"/>
<rect x="6.26392" y="7.03809" width="0.774194" height="0.703812" fill="#C7C7C7"/>
<rect x="10.5572" y="3.51917" width="0.774194" height="0.703812" fill="#C7C7C7"/>
<rect x="11.3314" y="3.51917" width="0.703812" height="0.703812" fill="#C7C7C7"/>
<rect x="11.3314" y="2.81519" width="0.703812" height="0.703812" fill="#C7C7C7"/>
<rect x="11.9648" y="2.11145" width="0.703812" height="0.703812" fill="#C7C7C7"/>
<rect x="8.51614" y="21.8885" width="1.26686" height="0.774194" fill="#C7C7C7"/>
<rect x="9.78302" y="22.6627" width="0.703812" height="0.703812" fill="#C7C7C7"/>
<rect x="10.4868" y="23.2258" width="0.844575" height="0.844575" fill="#C7C7C7"/>
<rect x="9.92377" y="25.3372" width="0.703812" height="0.703812" fill="#C7C7C7"/>
<rect x="19.0733" y="26.0411" width="2.81525" height="0.703812" fill="#C7C7C7"/>
<rect x="21.8885" y="26.7449" width="1.40762" height="0.703812" fill="#C7C7C7"/>
<rect x="8.51614" y="26.0411" width="1.40762" height="0.703812" fill="#C7C7C7"/>
<rect x="10.6276" y="26.0411" width="0.703812" height="0.703812" fill="#C7C7C7"/>
<rect x="9.92377" y="26.7449" width="2.81525" height="0.703812" fill="#C7C7C7"/>
<rect x="11.1906" y="23.9296" width="0.844575" height="0.844575" fill="#C7C7C7"/>
<rect x="11.1906" y="24.6334" width="1.54839" height="1.40762" fill="#C7C7C7"/>
<rect x="9.07922" y="23.3666" width="0.703812" height="1.97067" fill="#C7C7C7"/>
<rect x="9.14954" y="4.2229" width="2.18182" height="0.703812" fill="#C7C7C7"/>
<rect x="7.74191" y="4.92676" width="0.703812" height="0.703812" fill="#C7C7C7"/>
<rect x="9.14954" y="7.74194" width="0.703812" height="0.703812" fill="#C7C7C7"/>
<rect x="2.81525" y="17.5952" width="1.40762" height="0.844575" fill="#C7C7C7"/>
<rect x="5.63049" y="19.0028" width="1.40762" height="1.54839" fill="#C7C7C7"/>
<rect x="8.44574" y="7.03809" width="1.40762" height="0.703812" fill="#C7C7C7"/>
<rect x="7.74191" y="5.63049" width="0.703812" height="1.40762" fill="#C7C7C7"/>
<rect x="7.74191" y="9.85327" width="0.703812" height="2.81525" fill="#C7C7C7"/>
<rect x="9.07922" y="11.9648" width="0.703812" height="1.40762" fill="#C7C7C7"/>
<rect x="8.37537" y="13.3724" width="0.703812" height="2.11144" fill="#C7C7C7"/>
<rect x="10.4868" y="17.0323" width="0.774194" height="2.11144" fill="#C7C7C7"/>
<rect x="11.261" y="18.2991" width="0.774194" height="2.81525" fill="#C7C7C7"/>
<rect x="12.0352" y="19.7067" width="0.703812" height="2.81525" fill="#C7C7C7"/>
<rect x="12.739" y="21.9589" width="0.703812" height="1.26686" fill="#C7C7C7"/>
<rect x="16.2581" y="23.9296" width="2.81525" height="0.703812" fill="#C7C7C7"/>
<rect x="19.0733" y="23.2258" width="0.703812" height="0.703812" fill="#C7C7C7"/>
<rect x="18.3695" y="18.2991" width="0.703812" height="1.40762" fill="#C7C7C7"/>
<rect x="16.2581" y="14.0763" width="0.703812" height="1.40762" fill="#C7C7C7"/>
<rect x="19.0733" y="11.9648" width="0.703812" height="1.40762" fill="#C7C7C7"/>
<rect x="17.6656" y="19.7067" width="1.40762" height="0.703812" fill="#C7C7C7"/>
<rect x="18.3695" y="13.3724" width="1.40762" height="0.703812" fill="#C7C7C7"/>
<rect x="15.5543" y="15.4839" width="1.40762" height="0.703812" fill="#C7C7C7"/>
<rect x="13.4428" y="22.6627" width="1.40762" height="1.26686" fill="#C7C7C7"/>
<rect x="14.8505" y="23.3666" width="1.40762" height="1.26686" fill="#C7C7C7"/>
<rect x="9.07922" y="15.4839" width="0.844575" height="1.40762" fill="#C7C7C7"/>
<rect x="9.78302" y="16.1876" width="0.844575" height="1.47801" fill="#C7C7C7"/>
<rect x="7.03809" y="9.14954" width="1.40762" height="0.703812" fill="#C7C7C7"/>
<rect x="1.40762" y="6.33435" width="2.04106" height="0.703812" fill="#C7C7C7"/>
<rect x="4.22287" y="9.14954" width="1.40762" height="0.703812" fill="#C7C7C7"/>
<rect x="4.85629" y="8.44568" width="2.88563" height="0.703812" fill="#C7C7C7"/>
<rect x="7.03809" y="4.2229" width="1.40762" height="0.703812" fill="#A6A6A6"/>
<rect x="9.92377" y="5.63049" width="1.40762" height="0.703812" fill="#A6A6A6"/>
<rect x="10.6276" y="6.33435" width="0.703812" height="4.22287" fill="#A6A6A6"/>
<rect x="11.3314" y="7.03809" width="0.703812" height="2.81525" fill="#A6A6A6"/>
<rect x="7.74191" y="7.03809" width="0.703812" height="0.703812" fill="#A6A6A6"/>
<rect x="8.44574" y="7.74194" width="0.703812" height="0.703812" fill="#A6A6A6"/>
<rect x="7.74191" y="8.44568" width="0.703812" height="0.703812" fill="#A6A6A6"/>
<rect x="7.03809" y="9.85327" width="0.703812" height="0.703812" fill="#A6A6A6"/>
<rect x="5.63049" y="9.14954" width="1.40762" height="0.703812" fill="#A6A6A6"/>
<rect x="0.703796" y="8.44568" width="1.40762" height="0.703812" fill="#A6A6A6"/>
<rect x="8.44574" y="4.92676" width="0.703812" height="0.703812" fill="#A6A6A6"/>
<rect x="7.67157" y="12.6686" width="0.703812" height="0.703812" fill="#A6A6A6"/>
<rect x="6.33429" y="14.0763" width="0.703812" height="0.703812" fill="#A6A6A6"/>
<rect x="2.11142" y="20.5513" width="0.703812" height="0.703812" fill="#A6A6A6"/>
<rect x="10.4868" y="21.9589" width="0.844575" height="0.703812" fill="#A6A6A6"/>
<rect x="7.81232" y="19.7067" width="0.703812" height="0.844575" fill="#A6A6A6"/>
<rect x="3.51907" y="21.2551" width="4.29326" height="0.703812" fill="#A6A6A6"/>
<rect x="5.63049" y="20.5513" width="2.88563" height="0.703812" fill="#A6A6A6"/>
<rect x="9.14954" y="27.4487" width="5.70088" height="0.703812" fill="#A6A6A6"/>
<rect x="12.739" y="26.7449" width="2.11144" height="0.703812" fill="#A6A6A6"/>
<rect x="11.3314" y="26.0411" width="2.81525" height="0.703812" fill="#A6A6A6"/>
<rect x="12.739" y="24.6334" width="2.11144" height="0.703812" fill="#A6A6A6"/>
<rect x="16.2581" y="26.0411" width="2.81525" height="0.703812" fill="#A6A6A6"/>
<rect x="18.3695" y="26.7449" width="3.51906" height="0.703812" fill="#A6A6A6"/>
<rect x="15.5543" y="25.3372" width="4.22287" height="0.703812" fill="#A6A6A6"/>
<rect x="12.739" y="25.3372" width="1.40762" height="0.703812" fill="#A6A6A6"/>
<rect x="12.0352" y="23.9296" width="1.40762" height="0.703812" fill="#A6A6A6"/>
<rect x="11.3314" y="23.2258" width="1.40762" height="0.703812" fill="#A6A6A6"/>
<rect x="10.4868" y="22.522" width="1.54839" height="0.844575" fill="#A6A6A6"/>
<rect x="6.33429" y="17.5952" width="0.703812" height="1.40762" fill="#A6A6A6"/>
<rect x="7.03809" y="18.2991" width="0.774194" height="2.2522" fill="#A6A6A6"/>
<rect x="5.63049" y="14.78" width="0.703812" height="0.703812" fill="#A6A6A6"/>
<rect x="3.51907" y="21.9589" width="2.18182" height="0.703812" fill="#A6A6A6"/>
<rect x="3.51907" y="15.4839" width="2.11144" height="0.703812" fill="#A6A6A6"/>
<rect x="7.03809" y="13.3724" width="0.633431" height="0.703812" fill="#A6A6A6"/>
<rect x="4.22287" y="9.85327" width="1.40762" height="0.703812" fill="#A6A6A6"/>
<rect x="2.11142" y="9.14954" width="2.11144" height="0.703812" fill="#A6A6A6"/>
<rect x="8.44574" y="9.14954" width="0.703812" height="2.81525" fill="#A6A6A6"/>
<rect x="9.14954" y="8.44568" width="0.703812" height="0.703812" fill="#A6A6A6"/>
<rect x="9.78302" y="9.14954" width="0.844575" height="1.40762" fill="#A6A6A6"/>
<rect x="7.03809" y="4.92676" width="0.703812" height="2.81525" fill="#A6A6A6"/>
<rect x="7.03809" y="12.6686" width="0.703812" height="0.703812" fill="#C7C7C7"/>
<rect x="11.3314" y="10.5573" width="0.703812" height="0.703812" fill="#C7C7C7"/>
<rect x="9.85339" y="6.33435" width="0.774194" height="2.81525" fill="#C7C7C7"/>
<rect x="9.78302" y="11.261" width="1.54839" height="0.703812" fill="#C7C7C7"/>
<rect x="6.33429" y="13.3724" width="0.703812" height="0.703812" fill="#C7C7C7"/>
<rect x="5.63049" y="14.0763" width="0.703812" height="0.703812" fill="#C7C7C7"/>
<rect x="2.81525" y="19.0028" width="0.703812" height="0.844575" fill="#C7C7C7"/>
<rect x="2.11142" y="19.8475" width="0.703812" height="0.703812" fill="#C7C7C7"/>
<rect x="4.22287" y="19.8475" width="1.40762" height="0.703812" fill="#C7C7C7"/>
<rect x="2.81525" y="20.5513" width="2.81525" height="0.703812" fill="#C7C7C7"/>
<rect x="3.51907" y="14.78" width="2.11144" height="0.703812" fill="#C7C7C7"/>
<rect x="2.81525" y="18.2991" width="3.51906" height="0.703812" fill="#C7C7C7"/>
<rect x="8.51614" y="26.7449" width="0.703812" height="1.40762" fill="#C7C7C7"/>
<rect x="1.40762" y="9.14954" width="0.703812" height="1.40762" fill="#FCFBFC"/>
<rect x="4.22287" y="13.3724" width="0.703812" height="1.40762" fill="#FCFBFC"/>
<rect x="5.63049" y="12.6686" width="0.703812" height="1.40762" fill="#FCFBFC"/>
<rect x="5.63049" y="16.1876" width="0.703812" height="1.40762" fill="#FCFBFC"/>
<rect x="9.07922" y="13.3724" width="0.844575" height="2.11144" fill="#FCFBFC"/>
<rect x="11.261" y="17.0323" width="0.774194" height="1.26686" fill="#FCFBFC"/>
<rect x="13.4428" y="21.1144" width="0.703812" height="1.54839" fill="#FCFBFC"/>
<rect x="11.9648" y="17.5952" width="0.774194" height="2.11144" fill="#FCFBFC"/>
<rect x="12.739" y="19.7067" width="0.703812" height="2.2522" fill="#FCFBFC"/>
<rect x="9.78302" y="11.9648" width="0.844575" height="1.40762" fill="#FCFBFC"/>
<rect x="12.739" y="12.6686" width="0.703812" height="1.40762" fill="#FCFBFC"/>
<rect x="19.7772" y="15.4839" width="0.703812" height="1.40762" fill="#FCFBFC"/>
<rect x="14.8505" y="17.5952" width="0.703812" height="1.40762" fill="#FCFBFC"/>
<rect x="15.5543" y="10.5573" width="0.703812" height="1.40762" fill="#FCFBFC"/>
<rect x="1.40762" y="7.74194" width="0.703812" height="0.703812" fill="#FCFBFC"/>
<rect x="7.03809" y="11.9648" width="0.703812" height="0.703812" fill="#FCFBFC"/>
<rect x="7.03809" y="16.1876" width="0.633431" height="0.703812" fill="#FCFBFC"/>
<rect x="1.40762" y="20.5513" width="0.703812" height="0.703812" fill="#FCFBFC"/>
<rect x="2.81525" y="19.8475" width="0.703812" height="0.703812" fill="#FCFBFC"/>
<rect x="2.88562" y="21.9589" width="0.633431" height="0.703812" fill="#FCFBFC"/>
<rect x="3.51907" y="19.8475" width="0.703812" height="0.703812" fill="#FCFBFC"/>
<rect x="3.51907" y="19.0028" width="2.11144" height="0.844575" fill="#FCFBFC"/>
<rect x="9.07922" y="19.7067" width="0.703812" height="0.774194" fill="#FCFBFC"/>
<rect x="2.11142" y="17.5952" width="0.703812" height="0.844575" fill="#FCFBFC"/>
<rect x="10.6276" y="11.9648" width="0.703812" height="0.703812" fill="#FCFBFC"/>
<rect x="11.3314" y="11.261" width="0.703812" height="0.703812" fill="#FCFBFC"/>
<rect x="12.0352" y="13.3724" width="0.703812" height="0.703812" fill="#FCFBFC"/>
<rect x="20.481" y="16.1876" width="0.703812" height="0.703812" fill="#FCFBFC"/>
<rect x="14.1466" y="17.5952" width="0.703812" height="0.703812" fill="#FCFBFC"/>
<rect x="19.0733" y="22.522" width="0.703812" height="0.703812" fill="#FCFBFC"/>
<rect x="20.481" y="23.9296" width="0.703812" height="0.703812" fill="#FCFBFC"/>
<rect x="21.8885" y="25.3372" width="0.703812" height="0.703812" fill="#FCFBFC"/>
<rect x="9.92377" y="26.0411" width="0.703812" height="0.703812" fill="#FCFBFC"/>
<rect x="7.10849" y="26.7449" width="1.40762" height="1.40762" fill="#FCFBFC"/>
<rect x="9.78302" y="23.3666" width="0.774194" height="1.97067" fill="#FCFBFC"/>
<rect x="10.5572" y="24.0704" width="0.633431" height="1.97067" fill="#FCFBFC"/>
<rect x="6.40469" y="27.4487" width="0.703812" height="0.703812" fill="#FCFBFC"/>
<rect x="9.21994" y="26.7449" width="0.703812" height="0.703812" fill="#FCFBFC"/>
<rect x="19.7772" y="24.6334" width="1.40762" height="0.703812" fill="#FCFBFC"/>
<rect x="9.85339" y="15.4839" width="0.774194" height="0.703812" fill="#FCFBFC"/>
<rect x="20.481" y="19.0028" width="0.703812" height="0.703812" fill="#FCFBFC"/>
<rect x="14.8505" y="11.261" width="0.703812" height="0.703812" fill="#FCFBFC"/>
<rect x="12.0352" y="10.5573" width="1.40762" height="0.703812" fill="#FCFBFC"/>
<rect x="14.1466" y="21.8181" width="1.40762" height="0.844575" fill="#FCFBFC"/>
<rect x="14.8505" y="22.522" width="2.11144" height="0.844575" fill="#FCFBFC"/>
<rect x="16.2581" y="23.2258" width="2.81525" height="0.703812" fill="#FCFBFC"/>
<rect x="10.6276" y="16.1876" width="1.40762" height="0.844575" fill="#FCFBFC"/>
<rect x="4.22287" y="16.8915" width="1.40762" height="0.703812" fill="#FCFBFC"/>
<rect x="3.44867" y="7.74194" width="0.703812" height="0.703812" fill="#FCFBFC"/>
<rect x="8.44574" y="3.51917" width="0.703812" height="0.703812" fill="#FCFBFC"/>
<rect x="10.6276" y="2.81519" width="0.703812" height="0.703812" fill="#FCFBFC"/>
<rect x="11.9648" y="0.703857" width="0.703812" height="0.703812" fill="#FCFBFC"/>
<rect x="10.5572" y="2.11145" width="1.40762" height="0.703812" fill="#FCFBFC"/>
<rect x="11.261" y="1.40759" width="1.40762" height="0.703812" fill="#FCFBFC"/>
<rect x="2.81525" y="9.85327" width="1.40762" height="1.40762" fill="#FCFBFC"/>
<rect x="5.63049" y="9.85327" width="1.40762" height="1.40762" fill="#FCFBFC"/>
<rect x="14.8505" y="14.0763" width="1.40762" height="1.40762" fill="#FCFBFC"/>
<rect x="16.9619" y="18.2991" width="1.40762" height="1.40762" fill="#FCFBFC"/>
<rect x="17.6656" y="11.9648" width="1.40762" height="1.40762" fill="#FCFBFC"/>
<rect x="8.44574" y="5.63049" width="1.47801" height="1.40762" fill="#FCFBFC"/>
<rect x="9.14954" y="2.81519" width="1.47801" height="1.40762" fill="#FCFBFC"/>
<rect x="2.11142" y="8.44568" width="2.74487" height="0.703812" fill="#FCFBFC"/>
<rect x="2.11142" y="7.03809" width="1.33724" height="1.40762" fill="#FCFBFC"/>
</svg>
