<svg width="24" height="29" viewBox="0 0 24 29" fill="none" xmlns="http://www.w3.org/2000/svg">
<path d="M1.41175 6.35291H0.705872V7.05879H1.41175V6.35291Z" fill="#332929"/>
<path d="M4.23527 5.64697H1.41174V6.35285H4.23527V5.64697Z" fill="#332929"/>
<path d="M0.705882 7.05872H0V9.17636H0.705882V7.05872Z" fill="#332929"/>
<path d="M1.41175 9.17639H0.705872V10.5882H1.41175V9.17639Z" fill="#332929"/>
<path d="M7.05884 7.76482V8.4707H8.4706V7.76482H7.05884Z" fill="#332929"/>
<path d="M5.64706 8.47051V9.17639H7.05883V8.47051H5.64706Z" fill="#332929"/>
<path d="M3.52939 3.52947V4.23535H4.94115V3.52947H3.52939Z" fill="#332929"/>
<path d="M3.52939 4.94109V5.64697H4.94115V4.94109H3.52939Z" fill="#332929"/>
<path d="M5.64706 4.23528V4.94116H7.05883V4.23528H5.64706Z" fill="#332929"/>
<path d="M9.17648 2.1176V2.82349H10.5882V2.1176H9.17648Z" fill="#332929"/>
<path d="M14.1176 2.1176V2.82349H15.5294V2.1176H14.1176Z" fill="#332929"/>
<path d="M9.17648 4.94109V5.64697H11.2941V4.94109H9.17648Z" fill="#332929"/>
<path d="M5.64706 2.1176V2.82349L7.76471 2.82349V2.1176L5.64706 2.1176Z" fill="#332929"/>
<path d="M7.05884 2.82354V3.52942L9.17648 3.52942V2.82354L7.05884 2.82354Z" fill="#332929"/>
<path d="M12 5.64697H11.2941V7.05874H12V5.64697Z" fill="#332929"/>
<path d="M12.7059 7.05872H12V9.17636H12.7059V7.05872Z" fill="#332929"/>
<path d="M11.2941 9.88237V10.5883H14.1177V9.88237H11.2941Z" fill="#332929"/>
<path d="M13.4118 10.5882V11.2941H15.5294V10.5882H13.4118Z" fill="#332929"/>
<path d="M12 9.17644V9.88232H13.4118V9.17644H12Z" fill="#332929"/>
<path d="M12 11.2941V12H13.4118V11.2941H12Z" fill="#332929"/>
<path d="M16.9412 11.2941V12H19.7647V11.2941H16.9412Z" fill="#332929"/>
<path d="M5.64706 21.8824V22.5883H8.47059V21.8824H5.64706Z" fill="#332929"/>
<path d="M7.76468 21.1764V21.8823H9.88233V21.1764H7.76468Z" fill="#332929"/>
<path d="M8.47061 22.5883V23.2942H9.88238V22.5883H8.47061Z" fill="#332929"/>
<path d="M8.47061 25.4118V26.1177H9.88238V25.4118H8.47061Z" fill="#332929"/>
<path d="M14.1176 26.1177V26.8236H15.5294V26.1177H14.1176Z" fill="#332929"/>
<path d="M9.88235 21.1764V21.8823H12V21.1764H9.88235Z" fill="#332929"/>
<path d="M10.5882 15.5295V16.2354H12V15.5295H10.5882Z" fill="#332929"/>
<path d="M12.7059 16.2354H12V17.6471H12.7059V16.2354Z" fill="#332929"/>
<path d="M10.5882 13.4116H9.88235V15.5293H10.5882V13.4116Z" fill="#332929"/>
<path d="M7.05882 4.94116H6.35294V7.05881H7.05882V4.94116Z" fill="#332929"/>
<path d="M13.4118 16.9412H12.7059V19.9059H13.4118V16.9412Z" fill="#332929"/>
<path d="M14.1177 19.0588H13.4118V21.1765H14.1177V19.0588Z" fill="#332929"/>
<path d="M14.8235 20.4706H14.1176V21.8823H14.8235V20.4706Z" fill="#332929"/>
<path d="M14.8235 21.1764V21.8823H16.2353V21.1764H14.8235Z" fill="#332929"/>
<path d="M15.5294 21.8824V22.5883H16.9412V21.8824H15.5294Z" fill="#332929"/>
<path d="M16.9412 22.5883V23.2942H19.0588V22.5883H16.9412Z" fill="#332929"/>
<path d="M19.0588 21.8824V22.5883H19.7647V21.8824H19.0588Z" fill="#332929"/>
<path d="M19.7647 21.1764V21.8823H20.4706V21.1764H19.7647Z" fill="#332929"/>
<path d="M9.88235 21.8824V22.5883H10.5882V21.8824H9.88235Z" fill="#332929"/>
<path d="M11.2941 21.8824V22.5883H12V21.8824H11.2941Z" fill="#332929"/>
<path d="M12.7059 23.294V23.9999H13.4118V23.294H12.7059Z" fill="#332929"/>
<path d="M13.4118 23.9999V24.7058H14.1177V23.9999H13.4118Z" fill="#332929"/>
<path d="M12 22.5883V23.2942H12.7059V22.5883H12Z" fill="#332929"/>
<path d="M14.8235 4.94109V5.64697H16.2353V4.94109H14.8235Z" fill="#332929"/>
<path d="M17.647 6.35291H16.9412V7.76467H17.647V6.35291Z" fill="#332929"/>
<path d="M17.647 9.17639H16.9412V10.5882H17.647V9.17639Z" fill="#332929"/>
<path d="M16.2353 7.05872H15.5294V8.47048H16.2353V7.05872Z" fill="#332929"/>
<path d="M16.9412 7.76465H16.2353V9.17641H16.9412V7.76465Z" fill="#332929"/>
<path d="M12.7059 2.82349H12V4.23525H12.7059V2.82349Z" fill="#332929"/>
<path d="M13.4118 0.705811H12.7059V3.52934H13.4118V0.705811Z" fill="#332929"/>
<path d="M20.4706 12H19.7647V15.5294H20.4706V12Z" fill="#332929"/>
<path d="M16.9412 10.5883H16.2353V12H16.9412V10.5883Z" fill="#332929"/>
<path d="M21.1765 16.9412H20.4706V19.0588H21.1765V16.9412Z" fill="#332929"/>
<path d="M21.1765 19.7646H20.4706V21.1764H21.1765V19.7646Z" fill="#332929"/>
<path d="M7.05882 14.8236H6.35294V17.6471H7.05882V14.8236Z" fill="#332929"/>
<path d="M9.17649 15.5294H8.47061V16.9412H9.17649V15.5294Z" fill="#332929"/>
<path d="M10.5882 17.647H9.88235V19.0587H10.5882V17.647Z" fill="#332929"/>
<path d="M8.47056 18.3529H7.76468V19.7647H8.47056V18.3529Z" fill="#332929"/>
<path d="M9.17649 19.7646H8.47061V21.1764H9.17649V19.7646Z" fill="#332929"/>
<path d="M11.2941 19.0588H10.5882V21.1765H11.2941V19.0588Z" fill="#332929"/>
<path d="M9.17649 23.2942H8.47061V25.4118H9.17649V23.2942Z" fill="#332929"/>
<path d="M14.8235 24.7058H14.1176V26.1176H14.8235V24.7058Z" fill="#332929"/>
<path d="M14.8235 26.8236H14.1176V28.2354H14.8235V26.8236Z" fill="#332929"/>
<path d="M14.1177 25.4117H13.4118V26.8235H14.1177V25.4117Z" fill="#332929"/>
<path d="M4.23529 17.647V18.3529H6.35294V17.647H4.23529Z" fill="#332929"/>
<path d="M2.82355 22.5883V23.2942H5.64708V22.5883H2.82355Z" fill="#332929"/>
<path d="M7.05884 26.1177V26.8236H8.4706V26.1177H7.05884Z" fill="#332929"/>
<path d="M6.35294 28.2353V28.9412L14.1176 28.9412V28.2353L6.35294 28.2353Z" fill="#332929"/>
<path d="M17.6471 27.5293V28.2352H23.2941V27.5293H17.6471Z" fill="#332929"/>
<path d="M14.8235 24.7059V25.4117H19.7647V24.7059H14.8235Z" fill="#332929"/>
<path d="M15.5294 26.8235V27.5294H17.6471V26.8235H15.5294Z" fill="#332929"/>
<path d="M19.7647 25.4118V26.1177H21.8824V25.4118H19.7647Z" fill="#332929"/>
<path d="M2.11765 16.9411V17.647H4.23529V16.9411H2.11765Z" fill="#332929"/>
<path d="M2.11765 18.3529L2.11765 19.7646H2.82353L2.82353 18.3529H2.11765Z" fill="#332929"/>
<path d="M1.41174 17.647L1.41174 18.3529H2.11763V17.647H1.41174Z" fill="#332929"/>
<path d="M7.05884 17.647V18.3529H7.76472V17.647H7.05884Z" fill="#332929"/>
<path d="M9.17648 16.9411V17.647H9.88237V16.9411H9.17648Z" fill="#332929"/>
<path d="M1.41174 19.7647L1.41174 20.4706H2.11763V19.7647H1.41174Z" fill="#332929"/>
<path d="M0.705872 20.4706L0.705872 21.1765H1.41175L1.41175 20.4706H0.705872Z" fill="#332929"/>
<path d="M5.64706 27.5293V28.2352H6.35295V27.5293H5.64706Z" fill="#332929"/>
<path d="M23.2941 26.8235V27.5294H24V26.8235H23.2941Z" fill="#332929"/>
<path d="M20.4706 23.294V23.9999H21.1765V23.294H20.4706Z" fill="#332929"/>
<path d="M19.7647 22.5883V23.2942H20.4706V22.5883H19.7647Z" fill="#332929"/>
<path d="M21.1765 19.0588V19.7646H21.8824V19.0588H21.1765Z" fill="#332929"/>
<path d="M21.1765 16.2353V16.9412H21.8824V16.2353H21.1765Z" fill="#332929"/>
<path d="M20.4706 15.5295V16.2354H21.1765V15.5295H20.4706Z" fill="#332929"/>
<path d="M10.5882 12.7057V13.4116H11.2941V12.7057H10.5882Z" fill="#332929"/>
<path d="M11.2941 11.9999V12.7058H12V11.9999H11.2941Z" fill="#332929"/>
<path d="M15.5294 9.88237V10.5883H16.2353V9.88237H15.5294Z" fill="#332929"/>
<path d="M16.2353 5.64702V6.35291H16.9412V5.64702H16.2353Z" fill="#332929"/>
<path d="M14.1176 4.23528V4.94116H14.8235V4.23528H14.1176Z" fill="#332929"/>
<path d="M14.8235 3.52947V4.23535H15.5294V3.52947H14.8235Z" fill="#332929"/>
<path d="M13.4118 2.82354V3.52942H14.1177V2.82354H13.4118Z" fill="#332929"/>
<path d="M11.2941 4.23528V4.94116H12V4.23528H11.2941Z" fill="#332929"/>
<path d="M8.47061 4.23528V4.94116H9.17649V4.23528H8.47061Z" fill="#332929"/>
<path d="M8.47061 8.47051V9.17639H9.17649V8.47051H8.47061Z" fill="#332929"/>
<path d="M4.94119 7.76482V8.4707H5.64708V7.76482H4.94119Z" fill="#332929"/>
<path d="M5.64706 7.05877V7.76465H6.35295V7.05877H5.64706Z" fill="#332929"/>
<path d="M7.76468 3.52947V4.23535H8.47056V3.52947H7.76468Z" fill="#332929"/>
<path d="M2.82355 4.23528V4.94116H3.52943V4.23528H2.82355Z" fill="#332929"/>
<path d="M4.94119 2.82354V3.52942H5.64708V2.82354H4.94119Z" fill="#332929"/>
<path d="M7.76468 1.41179V2.11768H8.47056V1.41179L7.76468 1.41179Z" fill="#332929"/>
<path d="M8.47061 0.705861V1.41174L9.17649 1.41174V0.705861L8.47061 0.705861Z" fill="#332929"/>
<path d="M9.17648 -7.18411e-05V0.705811L9.88237 0.705811V-7.18411e-05L9.17648 -7.18411e-05Z" fill="#332929"/>
<path d="M9.88235 0.705861V1.41174L10.5882 1.41174V0.705861L9.88235 0.705861Z" fill="#332929"/>
<path d="M10.5882 1.41179V2.11768H11.2941V1.41179L10.5882 1.41179Z" fill="#332929"/>
<path d="M11.2941 0.705861V1.41174L12 1.41174V0.705861L11.2941 0.705861Z" fill="#332929"/>
<path d="M12 -7.18411e-05V0.705811L12.7059 0.705811V-7.18411e-05L12 -7.18411e-05Z" fill="#332929"/>
<path d="M6.35294 26.8235V27.5294H7.05882V26.8235H6.35294Z" fill="#332929"/>
<path d="M3.52942 14.1176H7.05883V14.8235H7.76472V15.5293H8.4706V13.4117H9.17648V11.9999H9.88236V11.294H11.2941V10.5882H9.88236V9.17639H9.17648V11.294H8.4706V11.9999H7.76472V12.7058H7.05883V13.4117H3.52942L3.52942 14.1176Z" fill="#332929"/>
<path d="M4.23531 11.2941H3.52943H2.82355V12H3.52943V12.7059H4.23531H4.94119V12H7.05884V11.2941H5.64708V10.5883H4.23531V11.2941Z" fill="#332929"/>
<path d="M2.82355 11.2941V10.5882L2.82355 9.88232H2.11767V10.5882H1.41178L1.41178 11.2941H2.82355Z" fill="#332929"/>
<path d="M4.94119 6.35288L4.94119 7.05877V7.76465H4.23531V7.05877H3.52943L3.52943 6.35288H4.94119Z" fill="#332929"/>
<path d="M2.82355 21.1765V21.8824L2.82355 22.5883H2.11767V21.8824H1.41178L1.41178 21.1765H2.82355Z" fill="#332929"/>
<path d="M23.2941 26.8235V26.1176V25.4117H22.5882V26.1176H21.8824V26.8235H23.2941Z" fill="#332929"/>
<path d="M20.4706 24.706V24.0001V23.2942H19.7647V24.0001H19.0588V24.706H20.4706Z" fill="#332929"/>
<path d="M21.1765 25.4116V24.7058V23.9999H21.8824V24.7058H22.5882V25.4116H21.1765Z" fill="#332929"/>
<path d="M2.11763 7.05872H1.41174V7.7646H2.11763V7.05872Z" fill="#332929"/>
<path d="M7.76472 10.5883H7.05884V11.2941H7.76472V10.5883Z" fill="#332929"/>
<path d="M3.52943 12.7058H2.82355V13.4117H3.52943V12.7058Z" fill="#332929"/>
<path d="M2.11763 9.17651H1.41174V10.5883H2.11763V9.17651Z" fill="#FFE9DE"/>
<path d="M4.23531 9.88245H2.82355V11.2942H4.23531V9.88245Z" fill="#FFE9DE"/>
<path d="M12 16.2355H10.5882V19.059H12V16.2355Z" fill="#FFE9DE"/>
<path d="M9.88237 12.0001H9.17648V16.9413H9.88237V12.0001Z" fill="#FFE9DE"/>
<path d="M9.17649 13.4117H8.47061V15.5294H9.17649V13.4117Z" fill="#FFE9DE"/>
<path d="M10.5882 15.5295H9.88235V17.6472H10.5882V15.5295Z" fill="#FFE9DE"/>
<path d="M12.7059 17.6471H12V19.7647H12.7059V17.6471Z" fill="#FFE9DE"/>
<path d="M12.7059 19.7648H12V22.5883H12.7059V19.7648Z" fill="#FFE9DE"/>
<path d="M13.4118 19.7648H12.7059V23.2942H13.4118V19.7648Z" fill="#FFE9DE"/>
<path d="M14.1177 21.1766H13.4118V24.0002H14.1177V21.1766Z" fill="#FFE9DE"/>
<path d="M14.8235 21.8824H14.1176V24.706H14.8235V21.8824Z" fill="#FFE9DE"/>
<path d="M15.5294 21.8824H14.8235V24.706H15.5294V21.8824Z" fill="#FFE9DE"/>
<path d="M16.2353 22.5884H15.5294V24.706H16.2353V22.5884Z" fill="#FFE9DE"/>
<path d="M16.9412 22.5884H16.2353V24.706H16.9412V22.5884Z" fill="#FFE9DE"/>
<path d="M19.0588 23.2943H16.9412V24.7061H19.0588V23.2943Z" fill="#FFE9DE"/>
<path d="M19.7647 22.5884H19.0588V24.0001H19.7647V22.5884Z" fill="#FFE9DE"/>
<path d="M12 19.059H11.2941V21.1766H12V19.059Z" fill="#FFE9DE"/>
<path d="M10.5882 11.2942H9.88235V13.4118H10.5882V11.2942Z" fill="#FFE9DE"/>
<path d="M11.2941 11.2942H10.5882V12.706H11.2941V11.2942Z" fill="#FFE9DE"/>
<path d="M12 10.5884H11.2941V12.0001H12V10.5884Z" fill="#FFE9DE"/>
<path d="M13.4118 10.5884H12V11.2943H13.4118V10.5884Z" fill="#FFE9DE"/>
<path d="M11.2941 2.82361H9.17648V4.94126H11.2941V2.82361Z" fill="#FFE9DE"/>
<path d="M7.05883 10.5884H5.64706V11.2943H7.05883V10.5884Z" fill="#FFE9DE"/>
<path d="M8.4706 26.8237H7.05884V27.5296H8.4706V26.8237Z" fill="#FFE9DE"/>
<path d="M8.47058 27.5295H6.35294V28.2354H8.47058V27.5295Z" fill="#FFE9DE"/>
<path d="M6.35296 4.94128H4.94119V5.64717H6.35296V4.94128Z" fill="#FFE9DE"/>
<path d="M6.35294 5.64709H4.23529V6.35298H6.35294V5.64709Z" fill="#FFE9DE"/>
<path d="M12.7059 2.11768H10.5882V2.82356H12.7059V2.11768Z" fill="#FFE9DE"/>
<path d="M6.35296 6.35303H4.94119V7.05891H6.35296V6.35303Z" fill="#FFE9DE"/>
<path d="M12.7059 1.41187H11.2941V2.11775H12.7059V1.41187Z" fill="#FFE9DE"/>
<path d="M7.05883 2.82361H5.64706V3.52949H7.05883V2.82361Z" fill="#FFE9DE"/>
<path d="M15.5294 2.82361H14.1176V3.52949V4.23537H14.8235V3.52949H15.5294V2.82361Z" fill="#FFE9DE"/>
<path d="M12 14.1177H13.4118V13.4118V12.7059H12.7059V13.4118H12V14.1177Z" fill="#FFE9DE"/>
<path d="M14.8235 12.0001H16.2353V11.2942V10.5884H15.5294V11.2942H14.8235V12.0001Z" fill="#FFE9DE"/>
<path d="M19.7647 25.4119H21.1765V24.706V24.0001H20.4706V24.706H19.7647V25.4119Z" fill="#FFE9DE"/>
<path d="M14.1177 17.6471H15.5294V18.353V19.0589H14.8235V18.353H14.1177V17.6471Z" fill="#FFE9DE"/>
<path d="M21.1765 16.9413H19.7647V16.2354V15.5295H20.4706V16.2354H21.1765V16.9413Z" fill="#FFE9DE"/>
<path d="M14.8235 14.1177H16.9412V15.1765V16.2353H15.5294V15.5294H14.8235V14.1177Z" fill="#FFE9DE"/>
<path d="M16.9412 18.353H19.0588V19.4119V20.4707H17.6471V19.7648H16.9412V18.353Z" fill="#FFE9DE"/>
<path d="M17.6471 12.0001H19.7647V13.0589V14.1178H18.3529V13.4119H17.6471V12.0001Z" fill="#FFE9DE"/>
<path d="M14.8235 4.94128H13.4118V5.64717H14.8235V4.94128Z" fill="#FFE9DE"/>
<path d="M14.8235 7.05884H13.4118V7.76472H14.8235V7.05884Z" fill="#FFE9DE"/>
<path d="M16.2353 8.4707H14.8235V9.17659H16.2353V8.4707Z" fill="#FFE9DE"/>
<path d="M16.2353 6.35301V7.76477H16.9412V6.35301H16.2353Z" fill="#FFE9DE"/>
<path d="M14.8235 7.05894V8.4707H15.5294V7.05894H14.8235Z" fill="#FFE9DE"/>
<path d="M13.4118 4.23547H12.7059V4.94136H13.4118V4.23547Z" fill="#FFE9DE"/>
<path d="M15.5294 5.64709H14.8235V6.35298H15.5294V5.64709Z" fill="#FFE9DE"/>
<path d="M16.9412 9.17651H16.2353V9.8824H16.9412V9.17651Z" fill="#FFE9DE"/>
<path d="M13.4118 8.4707H12.7059V9.17659H13.4118V8.4707Z" fill="#FFE9DE"/>
<path d="M14.1177 9.17651H13.4118V9.8824H14.1177V9.17651Z" fill="#FFE9DE"/>
<path d="M21.1765 19.059H20.4706V19.7648H21.1765V19.059Z" fill="#FFE9DE"/>
<path d="M22.5882 25.4119H21.8824V26.1177H22.5882V25.4119Z" fill="#FFE9DE"/>
<path d="M5.64707 7.05884H4.94119V7.76472H5.64707V7.05884Z" fill="#FFE9DE"/>
<path d="M12.7059 0.705933H12V1.41181H12.7059V0.705933Z" fill="#FFE9DE"/>
<path d="M9.17649 3.52954H8.47061V4.23542H9.17649V3.52954Z" fill="#FFE9DE"/>
<path d="M12 2.82361H11.2941V4.23537H12V2.82361Z" fill="#FFE9DE"/>
<path d="M4.23527 4.23547H3.52939V4.94136H4.23527V4.23547Z" fill="#FFE9DE"/>
<path d="M7.76472 16.2355H7.05884V16.9414H7.76472V16.2355Z" fill="#FFE9DE"/>
<path d="M9.17649 17.6471H8.47061V18.353H9.17649V17.6471Z" fill="#FFE9DE"/>
<path d="M9.88237 19.7648H9.17648V20.4707H9.88237V19.7648Z" fill="#FFE9DE"/>
<path d="M2.82353 17.6471H2.11765V18.353H2.82353V17.6471Z" fill="#FFE9DE"/>
<path d="M2.11763 20.4707H1.41174V21.1766H2.11763V20.4707Z" fill="#FFE9DE"/>
<path d="M3.52943 21.8824H2.82355V22.5883H3.52943V21.8824Z" fill="#FFE9DE"/>
<path d="M5.64707 3.52954H4.94119V4.23542H5.64707V3.52954Z" fill="#FFE9DE"/>
<path d="M9.17649 1.41187H8.47061V2.11775H9.17649V1.41187Z" fill="#FFE9DE"/>
<path d="M9.88237 0.705933H9.17648V1.41181H9.88237V0.705933Z" fill="#FFE9DE"/>
<path d="M9.17644 2.11768H7.76468V2.82356H9.17644V2.11768Z" fill="#FF8800"/>
<path d="M5.64706 4.23535H4.23529V4.94123H5.64706V4.23535Z" fill="#FF8800"/>
<path d="M9.17649 9.17639H8.47061V10.5882H9.17649V9.17639Z" fill="#FF8800"/>
<path d="M13.4118 7.05872H12.7059V8.47048H13.4118V7.05872Z" fill="#FF8800"/>
<path d="M14.1177 7.76465H13.4118V9.17641H14.1177V7.76465Z" fill="#FF8800"/>
<path d="M14.8235 7.76465H14.1176V9.17641H14.8235V7.76465Z" fill="#FF8800"/>
<path d="M14.8235 9.17639H14.1176V10.5882H14.8235V9.17639Z" fill="#FF8800"/>
<path d="M15.5294 9.17639H14.8235V10.5882H15.5294V9.88227H16.2353V9.17639H15.5294Z" fill="#FF8800"/>
<path d="M15.5294 7.05872H16.2353V5.64695H15.5294V6.35283H14.8235V7.05872H15.5294Z" fill="#FF8800"/>
<path d="M7.76472 16.2354H7.05884V14.8236H7.76472V15.5295H8.4706V16.2354H7.76472Z" fill="#FF8800"/>
<path d="M7.05882 19.0588H6.35294V17.6471H7.05882V18.353H7.7647V19.0588H7.05882Z" fill="#FF8800"/>
<path d="M7.76472 20.4706H7.05884V19.0588H7.76472V19.7647H8.4706V20.4706H7.76472Z" fill="#FF8800"/>
<path d="M7.76472 20.4706H7.05884V21.8823H7.76472V21.1765H8.4706V20.4706H7.76472Z" fill="#FF8800"/>
<path d="M4.94117 7.76465H4.23529V8.47053H4.94117V7.76465Z" fill="#FF8800"/>
<path d="M7.76472 12H7.05884V12.7059H7.76472V12Z" fill="#FF8800"/>
<path d="M12.7059 4.23535H12V4.94123H12.7059V4.23535Z" fill="#FF8800"/>
<path d="M14.1177 4.23535H13.4118V4.94123H14.1177V4.23535Z" fill="#FF8800"/>
<path d="M16.9412 9.88232H16.2353V10.5882H16.9412V9.88232Z" fill="#FF8800"/>
<path d="M1.41175 7.05872H0.705872V7.7646H1.41175V7.05872Z" fill="#FF8800"/>
<path d="M14.1176 3.52942H12.7059V4.2353H14.1176V3.52942Z" fill="#FF8800"/>
<path d="M13.4118 4.94116H11.2941V5.64704H13.4118V4.94116Z" fill="#FF8800"/>
<path d="M14.8235 5.64697H12V7.05874H14.8235V5.64697Z" fill="#FF8800"/>
<path d="M9.17644 10.5883H7.76468V11.2941H9.17644V10.5883Z" fill="#FF8800"/>
<path d="M8.4706 11.2941H7.05884V11.9999H8.4706V11.2941Z" fill="#FF8800"/>
<path d="M4.23531 17.647H2.82355V19.0587H4.23531V17.647Z" fill="#FF8800"/>
<path d="M6.35294 18.3529H4.23529V19.0588H6.35294V18.3529Z" fill="#FF8800"/>
<path d="M5.64704 21.8823H3.52939V22.5882H5.64704V21.8823Z" fill="#FF8800"/>
<path d="M9.88238 21.8823H8.47061V22.5882H9.88238V21.8823Z" fill="#FF8800"/>
<path d="M10.5882 22.5883H9.88235V23.2941H10.5882V22.5883Z" fill="#FF8800"/>
<path d="M12 22.5883H11.2941V23.2941H12V22.5883Z" fill="#FF8800"/>
<path d="M14.1177 26.8236H13.4118V28.2354H14.1177V26.8236Z" fill="#FF8800"/>
<path d="M14.1177 24.7058H9.17648V25.4117H14.1177V24.7058Z" fill="#FF8800"/>
<path d="M19.7647 25.4117H14.8235V26.1176H19.7647V25.4117Z" fill="#FF8800"/>
<path d="M21.8824 26.1177H15.5294V26.8236H21.8824V26.1177Z" fill="#FF8800"/>
<path d="M23.2941 26.8236H17.6471V27.5295H23.2941V26.8236Z" fill="#FF8800"/>
<path d="M13.4118 25.4117H9.88235V26.1176H13.4118V25.4117Z" fill="#FF8800"/>
<path d="M13.4118 23.9999H9.17648V24.7058H13.4118V23.9999Z" fill="#FF8800"/>
<path d="M12.7059 23.2942H9.17648V24.0001H12.7059V23.2942Z" fill="#FF8800"/>
<path d="M11.2941 21.8823H10.5882V23.2941H11.2941V21.8823Z" fill="#FF8800"/>
<path d="M13.4118 26.1177H8.47061V28.2353H13.4118V26.1177Z" fill="#FF8800"/>
<path d="M2.82353 19.7646H2.11765V21.1764H2.82353V19.7646Z" fill="#FF8800"/>
<path d="M4.94115 12.7058H3.52939V13.4117H4.94115V12.7058Z" fill="#FF8800"/>
<path d="M10.5882 1.41174H9.17648V2.11763H10.5882V1.41174Z" fill="#FF8800"/>
<path d="M7.76471 3.52942H5.64706V4.2353H7.76471V3.52942Z" fill="#FF8800"/>
<path d="M3.52939 6.35291H1.41174V7.05879H3.52939V6.35291Z" fill="#FF8800"/>
<path d="M4.23529 7.05872H2.11765V9.88225H4.23529V7.05872Z" fill="#FF8800"/>
<path d="M2.11764 7.76465H0.705872V9.17641H2.11764V7.76465Z" fill="#FF8800"/>
<path d="M5.64706 8.4707H4.23529V10.5884H5.64706V8.4707Z" fill="#FF8800"/>
<path d="M8.4706 8.4707H7.05884V10.5884H8.4706V8.4707Z" fill="#FF8800"/>
<path d="M7.05883 9.17639H5.64706V10.5882H7.05883V9.17639Z" fill="#FF8800"/>
<path d="M7.05884 12H4.94119V13.4118H7.05884V12Z" fill="#FF8800"/>
<path d="M7.05884 19.0588H2.82355V21.8824H7.05884V19.0588Z" fill="#FF8800"/>
<path d="M6.35295 7.76476H5.64706V8.47065H7.05883V7.76476H8.47059V8.47065H9.17648V9.17653H9.88236V10.5883H11.2941V9.88241H12V7.05888H11.2941V5.64712H9.17648V4.94123H8.47059V4.23535H7.05883V7.05888H6.35295V7.76476Z" fill="#68B64C"/>
<path d="M13.4118 11.9999V11.2941H14.8235V11.9999H13.4118Z" fill="#68B64C"/>
<path d="M11.2941 13.4117V12.7058H12.7059V13.4117H11.2941Z" fill="#68B64C"/>
<path d="M12 12.7059V12H17.6471V12.7059H12Z" fill="#68B64C"/>
<path d="M13.4118 13.4117V12.7058H17.6471V13.4117H13.4118Z" fill="#68B64C"/>
<path d="M13.4118 14.1175V13.4116H18.353V14.1175H13.4118Z" fill="#68B64C"/>
<path d="M16.9412 16.9412V14.1177H19.7647V16.9412H16.9412Z" fill="#68B64C"/>
<path d="M12 14.8236V14.1177H14.8235V14.8236H12Z" fill="#68B64C"/>
<path d="M8.47061 19.7647V19.0588H10.5883V19.7647H8.47061Z" fill="#68B64C"/>
<path d="M12.7059 16.9412V16.2354H16.9412V16.9412H12.7059Z" fill="#68B64C"/>
<path d="M13.4118 17.647V16.9412H20.4706V17.647H13.4118Z" fill="#68B64C"/>
<path d="M15.5294 18.3529V17.647H20.4706V18.3529H15.5294Z" fill="#68B64C"/>
<path d="M15.5294 21.1764V18.3529H16.9412V21.1764H15.5294Z" fill="#68B64C"/>
<path d="M19.0588 21.1764V18.3529H20.4706V21.1764H19.0588Z" fill="#68B64C"/>
<path d="M17.6471 22.5882V20.4706H19.0588V22.5882H17.6471Z" fill="#68B64C"/>
<path d="M14.1176 20.4706V19.0588H15.5294V20.4706H14.1176Z" fill="#68B64C"/>
<path d="M14.8235 21.1765V20.4706H15.5294V21.1765H14.8235Z" fill="#68B64C"/>
<path d="M16.2353 21.8824V21.1765H16.9412V21.8824H16.2353Z" fill="#68B64C"/>
<path d="M19.0588 21.8824V21.1765H19.7647V21.8824H19.0588Z" fill="#68B64C"/>
<path d="M13.4118 19.0587V17.647H14.1177V18.3529H14.8235V19.0587H13.4118Z" fill="#68B64C"/>
<path d="M10.5882 21.1764V19.7646H9.88234V20.4705H9.17646V21.1764H10.5882Z" fill="#68B64C"/>
<path d="M9.88235 19.0587V17.647H9.17647V18.3529H8.47059V19.0587H9.88235Z" fill="#68B64C"/>
<path d="M7.05884 16.9412V17.6471H7.76472V18.353H8.4706V17.6471H9.17648V16.9412H8.4706V16.2354H7.76472V16.9412H7.05884Z" fill="#68B64C"/>
<path d="M16.9412 22.5882V19.7646H17.647V22.5882H16.9412Z" fill="#68B64C"/>
<path d="M10.5882 15.5295V14.8236H14.8235V15.5295H10.5882Z" fill="#68B64C"/>
<path d="M12 16.2353V15.5294H15.5294V16.2353H12Z" fill="#68B64C"/>
<path d="M10.5882 14.8234V13.4116H12V14.8234H10.5882Z" fill="#68B64C"/>
</svg>
