<svg width="10" height="9" viewBox="0 0 10 9" fill="none" xmlns="http://www.w3.org/2000/svg">
<path d="M1.67299 3.62036H1.00848V4.28487H1.67299V3.62036Z" fill="#332929"/>
<path d="M3.002 1.62671H2.33749V2.29121H3.002V1.62671Z" fill="#332929"/>
<path d="M3.66655 0.962036H3.00204V1.62654H3.66655V0.962036Z" fill="#332929"/>
<path d="M6.90596 0.962036H6.24146V1.62654H6.90596V0.962036Z" fill="#332929"/>
<path d="M7.57048 1.62671H6.90598V2.29121H7.57048V1.62671Z" fill="#332929"/>
<path d="M8.89946 6.94275H8.23495V7.60725H8.89946V6.94275Z" fill="#332929"/>
<path d="M2.33751 2.29138H1.673V3.62039H2.33751V2.29138Z" fill="#332929"/>
<path d="M1.67299 6.2782H1.00848V7.60721H1.67299V6.2782Z" fill="#332929"/>
<path d="M1.0085 4.28479H0.343994V6.2783H1.0085V4.28479Z" fill="#332929"/>
<path d="M8.89946 4.28479H8.23495V5.6138H8.89946V4.28479Z" fill="#332929"/>
<path d="M9.56401 5.61377H8.89951V6.94278H9.56401V5.61377Z" fill="#332929"/>
<path d="M8.23497 2.29138H7.57047V4.2849H8.23497V2.29138Z" fill="#332929"/>
<path d="M5.57693 6.94267V7.60718H7.57045V6.94267H5.57693Z" fill="#332929"/>
<path d="M6.24146 6.27824V6.94275H8.23497V6.27824H6.24146Z" fill="#332929"/>
<path d="M6.90598 5.61369V6.2782H8.23498V5.61369H6.90598Z" fill="#332929"/>
<path d="M3.6665 0.297532V0.962036L6.24146 0.962036V0.297532L3.6665 0.297532Z" fill="#332929"/>
<path d="M1.673 7.60722V8.27173H8.23499V7.60722H1.673Z" fill="#332929"/>
<path d="M3.6665 0.96196V1.62646L6.24146 1.62646V0.96196L3.6665 0.96196Z" fill="#00FF00"/>
<path d="M6.24146 1.62676V2.29126H6.90596V1.62676H6.24146Z" fill="#00FF00"/>
<path d="M2.33749 2.29094V2.95544H3.002V2.29094H2.33749Z" fill="#00FF00"/>
<path d="M3.00204 4.94902V5.61353H3.66655V4.94902H3.00204Z" fill="#00FF00"/>
<path d="M1.67297 3.61972V4.94873H2.33748V3.61972H1.67297Z" fill="#00FF00"/>
<path d="M2.33749 4.28452V5.61353H3.002V4.28452H2.33749Z" fill="#00FF00"/>
<path d="M6.90598 2.29094V2.95544H7.57048V2.29094H6.90598Z" fill="#00FF00"/>
<path d="M5.5769 2.95561V3.62012H6.90591V2.95561H5.5769Z" fill="#00FF00"/>
<path d="M3.6665 3.62004V4.28455H5.57695V3.62004H3.6665Z" fill="#00FF00"/>
<path d="M3.6665 4.28423V4.94873H4.99551V4.28423H3.6665Z" fill="#00FF00"/>
<path d="M3.66653 1.62659H4.33104V2.29109H3.66653V1.62659Z" fill="#9DFFA1"/>
<path d="M4.28952 2.29126H4.95402V2.95576H4.28952V2.29126Z" fill="#9DFFA1"/>
<path d="M5.57697 4.28455H6.24147V4.94905H5.57697V4.28455Z" fill="#9DFFA1"/>
<path d="M4.91248 6.94263H5.57698V7.60713H4.91248V6.94263Z" fill="#9DFFA1"/>
<path d="M3.00204 2.29109V1.62659H3.66655V2.29109H3.00204Z" fill="#B6FF03"/>
<path d="M3.66653 6.27815V5.61365H4.33104V6.27815H3.66653Z" fill="#B6FF03"/>
<path d="M4.91248 2.95576V2.29126H5.57698V2.95576H4.91248Z" fill="#B6FF03"/>
<path d="M3.00204 4.28462V3.62012H3.66655V4.28462H3.00204Z" fill="#B6FF03"/>
<path d="M3.00204 3.61995V2.95544H5.577V3.61995H3.00204Z" fill="#B6FF03"/>
<path d="M5.57697 2.95576V2.29126H6.24147V2.95576H5.57697Z" fill="#B6FF03"/>
<path d="M6.24144 1.62659H4.33099V2.29109H6.24144V1.62659Z" fill="#009C00"/>
<path d="M6.90596 2.29126H6.24146V2.95576H6.90596V2.29126Z" fill="#009C00"/>
<path d="M5.57695 4.28455H4.95398V4.94905H5.57695V4.28455Z" fill="#009C00"/>
<path d="M4.95399 4.9491H4.28949V5.6136H4.95399V4.9491Z" fill="#009C00"/>
<path d="M2.33748 4.9491H1.67297V5.6136H2.33748V4.9491Z" fill="#009C00"/>
<path d="M3.6665 5.61365H2.33749V6.27815H3.6665V5.61365Z" fill="#009C00"/>
<path d="M4.28948 4.9491H3.6665V5.6136H4.28948V4.9491Z" fill="#009C00"/>
<path d="M3.66655 4.28455H3.00204V4.94905H3.66655V4.28455Z" fill="#009C00"/>
<path d="M3.002 2.95544H2.33749V4.28445H3.002V2.95544Z" fill="#009C00"/>
<path d="M7.57048 2.95544H6.90598V3.61995H7.57048V2.95544Z" fill="#009C00"/>
<path d="M7.57045 3.62012H5.57693V4.28462H7.57045V3.62012Z" fill="#009C00"/>
<path d="M4.33105 2.29126H3.00204V2.95576H4.33105V2.29126Z" fill="#009C00"/>
<path d="M1.00848 6.27806V4.28455H1.67299V5.61355H2.33749V6.27806H4.33101V5.61355H4.95398V4.94905H6.24146V4.28455H8.23497V5.61355H6.90596V6.27806H6.24146V6.94256H4.91245V7.60707H1.67299V6.27806H1.00848Z" fill="#FCFBFC"/>
<path d="M8.23497 5.61365H8.89947V6.94266H8.23497V7.60716H7.57047V6.94266H8.23497V5.61365Z" fill="#FCFBFC"/>
</svg>
