<svg width="7" height="7" viewBox="0 0 7 7" fill="none" xmlns="http://www.w3.org/2000/svg">
<path d="M0.402299 2.21252H0V4.82747H0.402299V2.21252Z" fill="#332929"/>
<path d="M6.99999 2.21252H6.59769V4.82747H6.99999V2.21252Z" fill="#332929"/>
<path d="M1.72991 4.42529H5.27014V4.82759H1.72991V4.42529Z" fill="#332929"/>
<path d="M1.72991 6.59766H5.27014V6.99996H1.72991V6.59766Z" fill="#332929"/>
<path d="M0.402272 4.82764H1.72986V5.27017H0.402272V4.82764Z" fill="#332929"/>
<path d="M5.2701 4.82764H6.59769V5.27017H5.2701V4.82764Z" fill="#332929"/>
<path d="M0.844842 1.32764H0.402313V2.21269H0.844842V1.32764Z" fill="#332929"/>
<path d="M1.28735 5.27014H0.844818V6.1552H1.28735V5.27014Z" fill="#332929"/>
<path d="M3.05749 4.82764H2.61496V5.71269H3.05749V4.82764Z" fill="#332929"/>
<path d="M4.38506 4.82764H3.94254V5.71269H4.38506V4.82764Z" fill="#332929"/>
<path d="M5.71267 6.15515H5.27014V6.59768H5.71267V6.15515Z" fill="#332929"/>
<path d="M1.72988 6.15515H1.28735V6.59768H1.72988V6.15515Z" fill="#332929"/>
<path d="M6.15518 5.27014H5.71265V6.1552H6.15518V5.27014Z" fill="#332929"/>
<path d="M6.59771 1.32764H6.15518V2.21269H6.59771V1.32764Z" fill="#332929"/>
<path d="M1.32758 0.88501H0.844818V1.32754H1.32758V0.88501Z" fill="#332929"/>
<path d="M6.15515 0.88501H5.67239V1.32754H6.15515V0.88501Z" fill="#332929"/>
<path d="M2.17243 0.442627H1.32761V0.885156H2.17243V0.442627Z" fill="#332929"/>
<path d="M5.67243 0.442627H4.82761V0.885156H5.67243V0.442627Z" fill="#332929"/>
<path d="M4.82757 0H2.17239V0.442529H4.82757V0Z" fill="#332929"/>
<path d="M1.72988 5.27017H1.28735V6.15522H1.72988V6.59775H5.27011V6.15522H5.71264V5.27017H5.27011V4.82764H4.38505V5.71269H3.94253V4.82764H3.05747V5.71269H2.61494V4.82764H1.72988V5.27017Z" fill="#FCDAB3"/>
<path d="M0.844842 2.21274H0.402313V4.82768H1.7299V4.42539H5.27013V4.82768H6.59772V2.21274H6.15519V1.32768H5.67243V0.885156H4.8276V0.442627H2.17243V0.885156H1.3276V1.32768H0.844842V2.21274Z" fill="#00BE3C"/>
<path d="M0.844842 3.09766H0.402313V4.82754H0.844842V4.38501H1.28737V3.54019H0.844842V3.09766Z" fill="#FCFBFC"/>
<path d="M5.27013 3.09768H4.82761V3.94251H5.27013V4.42527H6.11496V3.94251H6.59772V3.09768H6.11496V2.65515H5.27013V3.09768Z" fill="#FCFBFC"/>
<path d="M3.94254 1.32768V0.442627H4.82759V0.885156H5.67242V1.32768H6.15518V2.21274H4.82759V1.77021H4.38506V1.32768H3.94254Z" fill="#FCFBFC"/>
<path d="M1.28735 2.2126H0.844818V1.32754H1.32758V0.88501H2.1724V1.32754H1.72988V1.77007H1.28735V2.2126Z" fill="#FCFBFC"/>
<path d="M1.68967 3.54008V3.05732V2.17227H2.17243V1.72974H2.99714H3.94254V2.21249H4.38507V3.54008H3.94254V3.98261H2.17243V3.54008H1.68967Z" fill="#FCFBFC"/>
</svg>
