<svg width="14" height="6" viewBox="0 0 14 6" fill="none" xmlns="http://www.w3.org/2000/svg">
    <path
        d="M1.46817 3.03506H0.838959V3.54804H1.46817V4.06102H2.09739V4.574H3.35581V5.08697H4.56181V5.59995H7.1311V5.08697H9.01874V4.574H11.5356V4.06102H12.794V3.50529H14V3.03506H12.794V2.52209H11.5356V2.00911H9.01874V1.49613H7.1311V0.983154H4.61424V1.49613H3.35581V2.00911H2.09739V2.52209H1.46817V3.03506Z"
        fill="#2196F3" />
    <path
        d="M1.46817 3.03503H2.09738V2.52205H3.35581V2.00907H4.61424V1.49609H7.1311V2.00907H8.38952V2.4793H7.1311V2.00907H5.24345V2.4793H3.98503V3.03503H2.09738V3.548H3.98503V4.06098H5.24345V4.53121H6.5281V4.06098H8.38952V4.57396H7.1311V5.08694H4.56181V4.57396H3.35581V4.06098H2.09738V3.548H1.46817V3.03503Z"
        fill="#3F51B5" />
    <path
        d="M5.82022 3.01374H5.24344V3.54809H5.82022V4.06107H11.5356V3.54809H12.1648V3.03511H11.5356V2.52213L7.13108 2.47938V2.00916H6.44943V2.52213H5.82022V3.01374Z"
        fill="#00BCD4" />
    <path
        d="M0.419476 1.62433H0V1.96632H0.419476V2.3083H0.838952V1.96632H1.25843V1.62433H0.838952V1.28235H0.419476V1.62433Z"
        fill="#3F51B5" />
    <path d="M0.83894 1.62439H0.419464V1.96637H0.83894V1.62439Z" fill="#00BCD4" />
    <path
        d="M2.5693 0.427481H2.04495V0.854963H2.5693V1.28244H3.09364V0.854963H3.61799V0.427481H3.09364V0H2.5693V0.427481Z"
        fill="#3F51B5" />
    <path d="M3.09365 0.42749H2.56931V0.854971H3.09365V0.42749Z" fill="#00BCD4" />
</svg>