<svg width="14" height="14" viewBox="0 0 14 14" fill="none" xmlns="http://www.w3.org/2000/svg">
    <path d="M7.69838 6.53006L7.3327 6.0824L7.78037 5.71672L8.14605 6.16439L7.69838 6.53006Z" fill="#F35709" />
    <path d="M0.365676 6.32499L0 5.87732L0.447666 5.51164L0.813342 5.95931L0.365676 6.32499Z" fill="#F35709" />
    <path d="M1.36186 6.63089L0.996185 6.18323L1.89152 5.45187L2.25719 5.89954L1.36186 6.63089Z" fill="#F35709" />
    <path d="M2.94313 7.65287L2.57745 7.2052L3.47279 6.47385L3.83846 6.92151L2.94313 7.65287Z" fill="#F35709" />
    <path
        d="M7.26268 7.18458L6.81501 7.55026L7.18069 7.99793L7.62835 7.63225L7.99403 8.07992L7.54636 8.44559L8.42399 9.51999L8.87165 9.15431L9.63957 10.0944L10.1768 9.6556L10.579 10.148L12.5487 8.53906L12.1465 8.04663L12.6389 7.64438L12.2367 7.15195L12.6844 6.78627L11.053 4.83483L10.6277 5.18222L10.2255 4.68979L8.75883 5.88781L9.16108 6.38024L8.65798 6.79119L9.46247 7.77606L8.43284 8.61712L7.99403 8.07992L8.44169 7.71424L8.07602 7.26657L7.62835 7.63225L7.26268 7.18458Z"
        fill="#F35709" />
    <path
        d="M10.4048 6.7824L10.0391 6.33473L10.554 5.9142L10.9196 6.36187L11.3225 6.03276L12.0905 6.97286L11.6876 7.30197L12.1264 7.83917L11.6339 8.24141L11.963 8.64431L10.9334 9.48537L10.6043 9.08247L10.0671 9.52128L9.62829 8.98408L10.6132 8.17959L9.84523 7.23949L10.4048 6.7824Z"
        fill="#F3820A" />
    <path
        d="M5.75459 6.25205L5.30692 6.61772L4.94124 6.17006L4.49358 6.53573L4.1279 6.08807L4.57557 5.72239L4.94124 6.17006L5.38891 5.80438L5.75459 6.25205Z"
        fill="#F35709" />
    <path
        d="M6.48591 7.14731L6.03824 7.51299L5.67257 7.06532L5.2249 7.431L4.85922 6.98333L5.30689 6.61765L5.67257 7.06532L6.12023 6.69964L6.48591 7.14731Z"
        fill="#F35709" />
    <path
        d="M11.3099 6.56552L10.8622 6.9312L11.2279 7.37886L10.7802 7.74454L11.1459 8.19221L11.5936 7.82653L11.2279 7.37886L11.6756 7.01319L11.3099 6.56552Z"
        fill="#F1F194" />
</svg>