<svg width="16" height="9" viewBox="0 0 16 9" fill="none" xmlns="http://www.w3.org/2000/svg">
<path d="M11.7206 2.45916V3.06594H9.86826V3.67273H11.7206V4.27951H10.475V5.55696H4.91816V4.95017H4.27944V3.09788H5.55688V2.49109H9.86826V1.82043H11.0818V2.45916H11.7206Z" fill="#F9C61F"/>
<path d="M1.24552 1.85229H0.638733V3.0978H1.14441e-05V4.31137H0.638733V6.0998H1.24552V7.37724H3.06588V8.01596H6.09981V7.37724H3.06588V6.80239H1.85231V6.0998H1.24552V4.31137H0.638733V3.0978H1.24552V1.85229H4.34332V1.21357H9.22955V0.638722H12.9661V1.21357H10.4751V1.82036H11.0818V2.45908H11.7206V3.06587H14.1158V2.45908H16V1.88423H12.9661V1.21357H14.7545V0.638722H13.5406V0H9.22955V0.638722H4.34332V1.21357H1.24552V1.85229Z" fill="#F90000"/>
<path d="M11.7206 3.06592H9.86826V3.6727H11.7206V4.27949H10.475V5.55693H11.6886V6.77051H12.2635V7.37729H9.86826V8.01601H6.80239V8.65474H9.86826V8.01601H13.477V7.37729H15.3613V6.77051H12.2635V6.06791H14.6878V5.55693H12.2635V4.27949H14.0838V3.6727H11.7206V3.06592Z" fill="#F90000"/>
<path d="M12.9661 0.638794H9.22954V1.21364H4.34332V1.85237H1.24551V3.09787H0.638728V4.31145H1.24644V6.09987H1.8523V6.80246H3.06587V7.37731H6.0998V8.01603H6.8024H9.86826V7.37731H12.2635V6.77053H11.6886V5.55695H11.0499V6.1318H7.37725V6.77053H3.09781V5.55695H2.45909V3.70466H3.06587V2.49109H4.91817V1.8843H9.22954V1.21364H12.9661V0.638794Z" fill="#F9763E"/>
<path d="M10.4751 1.82041V1.21362H9.22957V1.88428H4.9182V2.49107H3.0659V3.70464H2.45912V5.55693H3.09784V6.77051H7.37727V6.13178H11.0499V5.55693H4.9182V4.95015H4.27947V3.09785H5.55692V2.49107H9.86829V1.82041H10.4751Z" fill="#F99027"/>
</svg>
