<svg width="29" height="16" viewBox="0 0 29 16" fill="none" xmlns="http://www.w3.org/2000/svg">
    <path d="M22.5124 12.0879H21.847V13.3078H22.5124V12.0879Z" fill="#63473C" />
    <path
        d="M11.9216 11.2007V12.0324H12.6424V12.6978H13.3633V13.3078H12.6979V14.0286H13.3633V14.8603H14.7495V14.0286H15.4704V13.3078H14.7495V12.6978H14.0287V12.0324H13.3633V11.2007H11.9216Z"
        fill="#FFBE35" />
    <path
        d="M13.9733 9.86987H13.3633V12.0324H14.0287V12.6978H14.7495V13.3077H15.4704V14.0286H18.3538V12.6978H16.2467V12.0324H15.5813V11.2007H14.7495V10.4798H13.9733V9.86987Z"
        fill="#FCFBFC" />
    <path
        d="M10.5354 1.99613V1.27528H11.9216V0.554443H16.9675V1.27528H20.5162V2.71697H19.7954V3.43781H18.3537V4.26955H16.912V4.87949H18.3537V5.54488H19.0191V6.26572H19.7954V6.98657H20.5162V7.65196H23.3442V8.31735H24.1205V11.3116H23.2887V12.0879H21.847V12.6424H21.1816V13.3078H20.5162V14.0286H18.3537V12.6978H16.2467V12.0325H15.5813V11.2007H14.7495V10.4799H13.9732V9.86993H13.3633V11.2007H12.6424V9.09364H14.0841V8.3728H14.805V7.59651H16.1912V6.93112H16.912V4.87949H16.2467V5.54488H14.7495V4.15865H14.0287V3.38236H13.3078V2.71697H12.6424V1.99613H10.5354Z"
        fill="#64C0FF" />
    <path
        d="M5.54492 4.15869H6.93116V5.60037H6.26577V6.26577H6.93116V6.93116H7.652V5.48948H9.03823V4.82408H9.75907V5.48948H10.4799V6.15487H11.2008V5.48948H11.9216V4.15869H12.6979V5.48948H13.3633V6.21032H14.0841V6.93116H14.805V7.652V8.37284H14.0841V9.09368H12.6424V9.81452H10.4799V9.09368H9.09368V8.37284H8.37284V7.652H5.54492V6.98661H4.79636V6.26577H4.15869V5.54492H5.54492V4.15869Z"
        fill="#FFBE35" />
    <path d="M11.2007 8.37291V7.70752H11.9216V8.37291H11.2007Z" fill="#FCFBFC" />
    <path d="M9.75908 3.3269H9.03824V4.82404H9.75908V3.3269Z" fill="#64BFFF" />
    <path d="M9.09367 8.37292H8.37283V9.75916H9.81452V9.09377H9.09367V8.37292Z" fill="#64BFFF" />
    <path d="M6.26578 5.60046H6.93117V6.26586H7.65201V6.93125H6.93117V6.26586H6.26578V5.60046Z" fill="#BA9860" />
    <path d="M1.38623 0H0V1.38623H1.38623V0Z" fill="#FF7D3E" />
    <path d="M1.38623 1.38623V0H2.10707V0.720841H2.77247V2.77247H0.665392V2.10707H0V1.38623H1.38623Z" fill="#FFBE35" />
    <path
        d="M2.77248 2.77248V2.05164H3.49332V2.77248H4.15871V3.49332H4.87955V4.15871H5.54494V5.54494H4.15871V4.8241H3.43787V4.15871H2.77248V3.49332H1.99619V2.77248H2.77248Z"
        fill="#BA9860" />
    <path d="M6.26578 3.43774V4.15859H6.93117V6.26566H7.65201V5.48937H8.3174V4.15859H7.65201V3.43774H6.26578Z"
        fill="#FCFBFC" />
    <path
        d="M5.4895 7.6521H6.21034V9.03833H6.93118V7.6521H8.37287V9.75917H7.59658V10.4246H6.21034V9.03833H5.4895V7.6521Z"
        fill="#FCFBFC" />
    <path d="M6.93117 7.6521H6.21033V9.03833H6.93117V7.6521Z" fill="#92908D" />
    <path
        d="M8.31738 5.48939V3.32686H9.03822V2.71692H9.75907V3.32686H10.4799V2.71692H11.2007V3.32686H11.9216V5.48939H11.2007V6.15478H10.4799V5.48939H9.75907V3.32686H9.03822V5.48939H8.31738Z"
        fill="#332929" />
    <path d="M11.2008 3.3269H10.4799V5.48943H11.2008V3.3269Z" fill="#64BFFF" />
    <path d="M9.03824 8.31739V7.70744H10.4245V6.93115H12.6424V7.70744H10.4245V8.31739H9.03824Z" fill="#92908D" />
    <path
        d="M9.03824 2.71706V1.99622H12.6424V2.71706H13.3078V3.38245H14.0287V4.15874H14.7495V5.54497H16.2467V4.87958H16.912V6.93121H16.1912V7.5966H14.805V6.93121H14.0841V6.21036H13.3633V5.48952H12.6979V4.15874H11.9216V3.327H11.2008V2.71706H10.4799V3.327H9.75908V2.71706H9.03824Z"
        fill="#FCFBFC" />
    <path
        d="M3.3824 11.2008V10.5354H5.48948V11.2008H9.03823V12.0325H12.6424V12.6979H13.3633V13.3079H8.31739V12.6979H4.82408V11.9771H2.66156V11.2008H3.3824Z"
        fill="#BA9860" />
    <path d="M3.3824 10.5354H2.66156V11.2008H3.3824V10.5354Z" fill="#62615D" />
    <path
        d="M16.2467 14.7495V14.0287H20.5163V13.3079H21.1817V14.7495H20.5163V15.4704H19.0746V14.7495H18.2983V15.4704H16.9121V14.7495H16.2467Z"
        fill="#FE454E" />
    <path d="M21.847 12.6425H21.1816V13.3078H21.847V12.6425Z" fill="#BA9860" />
    <path
        d="M24.7304 13.3079H22.5124V12.0881H23.2887V11.3118H24.1205V9.87009H24.7304V9.14924H25.4512V8.3175H26.2275V9.14924H26.9484V8.3175H27.6692V9.14924H26.9484V9.81464H29V10.5909H27.6692V11.2563H29V12.0326H28.3346V12.698H26.9484V13.4188H28.3346V14.0842H24.7304V13.3079Z"
        fill="#FF7D3E" />
    <path d="M28.3346 9.14905V9.81444H26.9484V10.5076H26.283V9.81444H26.9484V9.14905H28.3346Z" fill="#5F635B" />
    <path d="M29 10.5909V11.2563H27.6137V11.9217H26.9483V11.2563H27.6137V10.5909H29Z" fill="#5F635B" />
    <path d="M26.9484 13.4188V12.698H28.3346V12.0326H29V12.698H28.3346V13.4188H26.9484Z" fill="#5F635B" />
</svg>