<svg width="14" height="16" viewBox="0 0 14 16" fill="none" xmlns="http://www.w3.org/2000/svg">
<path d="M2.01116 3.03906H1.11731V5.98878H2.9944V5.05024H2.01116V3.03906Z" fill="#7A390F"/>
<path d="M2.99441 3.03906H2.01117V5.05024H2.99441V3.03906Z" fill="#F5DEB2"/>
<path d="M2.99439 3.03916H2.01294V2.01123H5.00557V3.03916H3.97763V4.0224H5.00557V5.05034H2.99439V3.03916Z" fill="#7A390F"/>
<path d="M10.0559 7.06151H2.99445V5.05034H5.00562V4.0224H3.97769V3.03916H5.00562V2.01123H7.01679V4.0224H8.04472V5.05034H7.01679V6.03358H10.0559V7.06151Z" fill="#F5DEB2"/>
<path d="M7.01678 4.0224V2.01123H8.04472V4.0224H7.01678Z" fill="#332929"/>
<path d="M8.04472 5.05015V4.02222H9.02796V5.05015H11.0391V6.03339H7.01678V5.05015H8.04472Z" fill="#332929"/>
<path d="M8.04468 4.0224V2.01123H9.02792V3.03916H11.0391V4.0224H12.067V5.05034H9.02792V4.0224H8.04468Z" fill="#F5DEB2"/>
<path d="M2.01115 1.07263L2.00592 2.01117H11.0167V1.02793H7.99465V0H2.99439V1.07263H2.01115Z" fill="#FF0000"/>
<path d="M3.97765 10.1006V7.06152H5.00558V9.0727H7.01676V7.91069H8.04469V10.1006H8.98324V11.0839H10.1006V12.1341V14.123H7.01676V13.095H5.00558V14.123H2.01117V13.1174V12.1118H3.01676V10.1006H3.97765Z" fill="#0070C0"/>
<path d="M4.02234 11.0391V10.1453H4.98323V11.0391H4.02234Z" fill="#FCFD01"/>
<path d="M7.06146 11.0391V10.1453H8.02236V11.0391H7.06146Z" fill="#FCFD01"/>
<path d="M3.97765 10.1006V7.06152H1.96648V8.04476H0.960894V9.11739H0V10.0559H1.96648V11.0839H3.01676V10.1006H3.97765Z" fill="#FF0000"/>
<path d="M1.96648 10.0559L0 10.0559L0.0446927 13.095H2.01117V12.1118H3.01676V11.0838H1.96648V10.0559Z" fill="#F5DEB2"/>
<path d="M5.00555 9.0727V7.06152H7.01673H8.04466V7.91069H7.01673V9.0727H5.00555Z" fill="#FF0000"/>
<path d="M8.98323 10.1006H8.04468V7.06152H10.3767H12.067V8.08946H11.3966V9.0727H10.0559H8.98323V10.1006Z" fill="#FF0000"/>
<path d="M13.5866 5.98877V9.07257H12.6034H11.3967V8.08933H12.0671V7.0614H12.6034V5.98877H13.5866Z" fill="#F5DEB2"/>
<path d="M1.00557 14.1228H2.01116H3.88825V15.9999H0.0446777V15.1284H1.00557V14.1228Z" fill="#7A390F"/>
<path d="M10.9274 14.1228H9.92176H8.04467V15.9999H11.8882V15.1284H10.9274V14.1228Z" fill="#7A390F"/>
</svg>
