<svg width="14" height="16" viewBox="0 0 14 16" fill="none" xmlns="http://www.w3.org/2000/svg">
<path d="M2.01117 3.03906H1.11731V5.98879H2.99441V5.05024H2.01117V3.03906Z" fill="#7A390F"/>
<path d="M2.99444 3.03906H2.0112V5.05024H2.99444V3.03906Z" fill="#F5DEB2"/>
<path d="M2.9944 3.03917H2.01294V2.01123H5.00557V3.03917H3.97764V4.02241H5.00557V5.05034H2.9944V3.03917Z" fill="#7A390F"/>
<path d="M10.0559 7.06152H2.99442V5.05034H5.00559V4.02241H3.97766V3.03917H5.00559V2.01123H7.01677V4.02241H8.0447V5.05034H7.01677V6.03358H10.0559V7.06152Z" fill="#F5DEB2"/>
<path d="M7.01678 4.02241V2.01123H8.04472V4.02241H7.01678Z" fill="#332929"/>
<path d="M8.04472 5.05027V4.02234H9.02796V5.05027H11.0391V6.03352H7.01678V5.05027H8.04472Z" fill="#332929"/>
<path d="M8.04471 4.02241V2.01123H9.02795V3.03917H11.0391V4.02241H12.0671V5.05034H9.02795V4.02241H8.04471Z" fill="#F5DEB2"/>
<path d="M2.01118 1.07263L2.00595 2.01118H11.0168V1.02793H7.99469V0H2.99442V1.07263H2.01118Z" fill="white"/>
<path d="M3.97768 10.1005V7.0614H5.00562V9.07258H7.0168V7.91057H8.04473V10.1005H8.98328V11.0838H10.1006V12.134V14.1229H7.0168V13.0949H5.00562V14.1229H2.0112V13.1173V12.1117H3.01679V10.1005H3.97768Z" fill="#FE0000"/>
<path d="M4.02234 11.0394V10.1455H4.98323V11.0394H4.02234Z" fill="#FCFD01"/>
<path d="M7.06143 11.0394V10.1455H8.02233V11.0394H7.06143Z" fill="#FCFD01"/>
<path d="M3.97766 10.1005V7.0614H1.96648V8.04464H0.960896V9.11727H0V10.0558H1.96648V11.0838H3.01677V10.1005H3.97766Z" fill="white"/>
<path d="M1.96648 10.0558L0 10.0558L0.0446928 13.0949H2.01118V12.1117H3.01677V11.0837H1.96648V10.0558Z" fill="#E5E5E5"/>
<path d="M5.00562 9.07258V7.0614H7.01679H8.04473V7.91056H7.01679V9.07258H5.00562Z" fill="white"/>
<path d="M8.98326 10.1005H8.04471V7.0614H10.3768H12.0671V8.08934H11.3967V9.07258H10.0559H8.98326V10.1005Z" fill="white"/>
<path d="M13.5866 5.98877V9.07257H12.6034H11.3967V8.08933H12.0671V7.0614H12.6034V5.98877H13.5866Z" fill="#E5E5E5"/>
<path d="M1.00557 14.1229H2.01116H3.88826V16H0.0446777V15.1285H1.00557V14.1229Z" fill="#7A390F"/>
<path d="M10.9274 14.1229H9.92182H8.04472V16H11.8883V15.1285H10.9274V14.1229Z" fill="#7A390F"/>
</svg>
